<?xml version="1.0" encoding="UTF-8"?>
<svg xmlns="http://www.w3.org/2000/svg" width="640" height="1120" viewBox="0 0 640 1120" xmlns:c2pa="http://c2pa.org/manifest"><metadata><c2pa:manifest>AAAWgmp1bWIAAAAeanVtZGMycGEAEQAQgAAAqgA4m3EDYzJwYQAAABZcanVtYgAAAEdqdW1kYzJtYQARABCAAACqADibcQN1cm46YzJwYToyN2Y1OTJlZC0xMTJiLTRjNDctOWUxZS01OWQ5ZTkzZWI4YzkAAAADl2p1bWIAAAApanVtZGMyYXMAEQAQgAAAqgA4m3EDYzJwYS5hc3NlcnRpb25zAAAAALxqdW1iAAAARGp1bWRjYm9yABEAEIAAAKoAOJtxE2MycGEuaW5ncmVkaWVudC52MwAAAAAYYzJzaOjdnsPkINYFwVtAdw5NowwAAABwY2JvcqNpZGM6Zm9ybWF0bWltYWdlL3N2Zyt4bWxqaW5zdGFuY2VJRHgseG1wOmlpZDplM2UwYmU2OS1mZGJjLTQ0YjEtYjBhYy0xZmYwMDU0ZmVmN2JscmVsYXRpb25zaGlwaHBhcmVudE9mAAAB4mp1bWIAAABBanVtZGNib3IAEQAQgAAAqgA4m3ETYzJwYS5hY3Rpb25zLnYyAAAAABhjMnNo6u3McJ1qakMoXC5c/JupOAAAAZljYm9yomdhY3Rpb25zgqJmYWN0aW9ua2MycGEub3BlbmVkanBhcmFtZXRlcnOha2luZ3JlZGllbnRzgaJjdXJseC1zZWxmI2p1bWJmPWMycGEuYXNzZXJ0aW9ucy9jMnBhLmluZ3JlZGllbnQudjNkaGFzaFggySteBgvgib4811ORDqHO6Cibwnad0LnWdSmobEFuYU6kZmFjdGlvbngdY29tLmFudGhyb3BpYy5jbGF1ZGUucHJvdmlkZWRqcGFyYW1ldGVyc6F4H2NvbS5hbnRocm9waWMub3JpZ2luLWNvbmZpZGVuY2VndW5rbm93bmtkZXNjcmlwdGlvbnhmQ2xhdWRlIHByb3ZpZGVkIHRoaXMgZmlsZSBhdCB0aGUgcmVxdWVzdCBvZiBhIHVzZXIgYW5kIG1heSBoYXZlIGNyZWF0ZWQgb3IgbW9kaWZpZWQgdGhlIGZpbGUgY29udGVudHMubXNvZnR3YXJlQWdlbnShZG5hbWVmQ2xhdWRlcmFsbEFjdGlvbnNJbmNsdWRlZPUAAADIanVtYgAAAEBqdW1kY2JvcgARABCAAACqADibcRNjMnBhLmhhc2guZGF0YQAAAAAYYzJzaKWhYAomthsBtgPbHx4DorQAAACAY2JvcqVjYWxnZnNoYTI1NmNwYWRNAAAAAAAAAAAAAAAAAGRoYXNoWCCoY41L3Oyod5WmoCspcfAyd25di+jBgDy8C/jIZLqnZmRuYW1lbmp1bWJmIG1hbmlmZXN0amV4Y2x1c2lvbnOBomVzdGFydBi/Zmxlbmd0aBkeBAAAAj5qdW1iAAAAJ2p1bWRjMmNsABEAEIAAAKoAOJtxA2MycGEuY2xhaW0udjIAAAACD2Nib3KlY2FsZ2ZzaGEyNTZpc2lnbmF0dXJleE1zZWxmI2p1bWJmPS9jMnBhL3VybjpjMnBhOjI3ZjU5MmVkLTExMmItNGM0Ny05ZTFlLTU5ZDllOTNlYjhjOS9jMnBhLnNpZ25hdHVyZWppbnN0YW5jZUlEeCx4bXA6aWlkOjdjZjQ5MWFjLTcxNzUtNDQyMC05MGE1LTAwMjVmMzQ4ODQ3NHJjcmVhdGVkX2Fzc2VydGlvbnODomN1cmx4LXNlbGYjanVtYmY9YzJwYS5hc3NlcnRpb25zL2MycGEuaW5ncmVkaWVudC52M2RoYXNoWCDJK14GC+CJvjzXU5EOoc7oKJvCdp3QudZ1KahsQW5hTqJjdXJseCpzZWxmI2p1bWJmPWMycGEuYXNzZXJ0aW9ucy9jMnBhLmFjdGlvbnMudjJkaGFzaFggcsKWD9RPbcSH05WtOohrwUGWqxgknE/2C9Re3v8XdHiiY3VybHgpc2VsZiNqdW1iZj1jMnBhLmFzc2VydGlvbnMvYzJwYS5oYXNoLmRhdGFkaGFzaFgghF6z7n13LgE0aqcMbKgxd/O8hXYorVpYkbUllB5YBk10Y2xhaW1fZ2VuZXJhdG9yX2luZm+jZG5hbWVvQW50aHJvcGljIEZpbGVzZ3ZlcnNpb25lMS4wLjBrc3BlY1ZlcnNpb25lMi40LjAAABA4anVtYgAAAChqdW1kYzJjcwARABCAAACqADibcQNjMnBhLnNpZ25hdHVyZQAAABAIY2JvctKEWQISogEmGCFZAgowggIGMIIBjaADAgECAhRA5aAK7sI50L64g/oGQgU9Z1UTADAKBggqhkjOPQQDAzBJMRcwFQYDVQQKEw5BbnRocm9waWMsIFBCQzEuMCwGA1UEAxMlQW50aHJvcGljIENvbnRlbnQgQ3JlZGVudGlhbHMgUm9vdCBDQTAeFw0yNjA4MDcxODQzNTZaFw0yODA4MDYxOTQzNTZaMEQxFzAVBgNVBAoTDkFudGhyb3BpYywgUEJDMSkwJwYDVQQDEyBBbnRocm9waWMgQ2xhdWRlIENvbnRlbnQgU2lnbmluZzBZMBMGByqGSM49AgEGCCqGSM49AwEHA0IABJh6CmvLUBgFFNU0vUKlOVtE6djd17L5SuwX0LemFisBM3dkd/3cyjxFA3Qo5S46fX0/ihY0VZ7mfb9KF703t5OjWDBWMA4GA1UdDwEB/wQEAwIHgDAVBgNVHSUEDjAMBgorBgEEAYPoXgIBMAwGA1UdEwEB/wQCMAAwHwYDVR0jBBgwFoAUzlHiBIFOZFsj+OPEz5o+nMHXXMIwCgYIKoZIzj0EAwMDZwAwZAIwMXMdFJ4BetLLVY7ORuE9noqbbAZOZn/aArXyTwFAZfKrPzxF2vPoJNf1+UCdg1XGAjBwX1zd9WGqYkqmL5SFqw1QySjr1zJfpJM9+1rdDwSPLMOPOjKuiXjoU/pUUeG9RwmhY3BhZFkNngAAAAAAAAAAAAAAAAAAAAAAAAAAAAAAAAAAAAAAAAAAAAAAAAAAAAAAAAAAAAAAAAAAAAAAAAAAAAAAAAAAAAAAAAAAAAAAAAAAAAAAAAAAAAAAAAAAAAAAAAAAAAAAAAAAAAAAAAAAAAAAAAAAAAAAAAAAAAAAAAAAAAAAAAAAAAAAAAAAAAAAAAAAAAAAAAAAAAAAAAAAAAAAAAAAAAAAAAAAAAAAAAAAAAAAAAAAAAAAAAAAAAAAAAAAAAAAAAAAAAAAAAAAAAAAAAAAAAAAAAAAAAAAAAAAAAAAAAAAAAAAAAAAAAAAAAAAAAAAAAAAAAAAAAAAAAAAAAAAAAAAAAAAAAAAAAAAAAAAAAAAAAAAAAAAAAAAAAAAAAAAAAAAAAAAAAAAAAAAAAAAAAAAAAAAAAAAAAAAAAAAAAAAAAAAAAAAAAAAAAAAAAAAAAAAAAAAAAAAAAAAAAAAAAAAAAAAAAAAAAAAAAAAAAAAAAAAAAAAAAAAAAAAAAAAAAAAAAAAAAAAAAAAAAAAAAAAAAAAAAAAAAAAAAAAAAAAAAAAAAAAAAAAAAAAAAAAAAAAAAAAAAAAAAAAAAAAAAAAAAAAAAAAAAAAAAAAAAAAAAAAAAAAAAAAAAAAAAAAAAAAAAAAAAAAAAAAAAAAAAAAAAAAAAAAAAAAAAAAAAAAAAAAAAAAAAAAAAAAAAAAAAAAAAAAAAAAAAAAAAAAAAAAAAAAAAAAAAAAAAAAAAAAAAAAAAAAAAAAAAAAAAAAAAAAAAAAAAAAAAAAAAAAAAAAAAAAAAAAAAAAAAAAAAAAAAAAAAAAAAAAAAAAAAAAAAAAAAAAAAAAAAAAAAAAAAAAAAAAAAAAAAAAAAAAAAAAAAAAAAAAAAAAAAAAAAAAAAAAAAAAAAAAAAAAAAAAAAAAAAAAAAAAAAAAAAAAAAAAAAAAAAAAAAAAAAAAAAAAAAAAAAAAAAAAAAAAAAAAAAAAAAAAAAAAAAAAAAAAAAAAAAAAAAAAAAAAAAAAAAAAAAAAAAAAAAAAAAAAAAAAAAAAAAAAAAAAAAAAAAAAAAAAAAAAAAAAAAAAAAAAAAAAAAAAAAAAAAAAAAAAAAAAAAAAAAAAAAAAAAAAAAAAAAAAAAAAAAAAAAAAAAAAAAAAAAAAAAAAAAAAAAAAAAAAAAAAAAAAAAAAAAAAAAAAAAAAAAAAAAAAAAAAAAAAAAAAAAAAAAAAAAAAAAAAAAAAAAAAAAAAAAAAAAAAAAAAAAAAAAAAAAAAAAAAAAAAAAAAAAAAAAAAAAAAAAAAAAAAAAAAAAAAAAAAAAAAAAAAAAAAAAAAAAAAAAAAAAAAAAAAAAAAAAAAAAAAAAAAAAAAAAAAAAAAAAAAAAAAAAAAAAAAAAAAAAAAAAAAAAAAAAAAAAAAAAAAAAAAAAAAAAAAAAAAAAAAAAAAAAAAAAAAAAAAAAAAAAAAAAAAAAAAAAAAAAAAAAAAAAAAAAAAAAAAAAAAAAAAAAAAAAAAAAAAAAAAAAAAAAAAAAAAAAAAAAAAAAAAAAAAAAAAAAAAAAAAAAAAAAAAAAAAAAAAAAAAAAAAAAAAAAAAAAAAAAAAAAAAAAAAAAAAAAAAAAAAAAAAAAAAAAAAAAAAAAAAAAAAAAAAAAAAAAAAAAAAAAAAAAAAAAAAAAAAAAAAAAAAAAAAAAAAAAAAAAAAAAAAAAAAAAAAAAAAAAAAAAAAAAAAAAAAAAAAAAAAAAAAAAAAAAAAAAAAAAAAAAAAAAAAAAAAAAAAAAAAAAAAAAAAAAAAAAAAAAAAAAAAAAAAAAAAAAAAAAAAAAAAAAAAAAAAAAAAAAAAAAAAAAAAAAAAAAAAAAAAAAAAAAAAAAAAAAAAAAAAAAAAAAAAAAAAAAAAAAAAAAAAAAAAAAAAAAAAAAAAAAAAAAAAAAAAAAAAAAAAAAAAAAAAAAAAAAAAAAAAAAAAAAAAAAAAAAAAAAAAAAAAAAAAAAAAAAAAAAAAAAAAAAAAAAAAAAAAAAAAAAAAAAAAAAAAAAAAAAAAAAAAAAAAAAAAAAAAAAAAAAAAAAAAAAAAAAAAAAAAAAAAAAAAAAAAAAAAAAAAAAAAAAAAAAAAAAAAAAAAAAAAAAAAAAAAAAAAAAAAAAAAAAAAAAAAAAAAAAAAAAAAAAAAAAAAAAAAAAAAAAAAAAAAAAAAAAAAAAAAAAAAAAAAAAAAAAAAAAAAAAAAAAAAAAAAAAAAAAAAAAAAAAAAAAAAAAAAAAAAAAAAAAAAAAAAAAAAAAAAAAAAAAAAAAAAAAAAAAAAAAAAAAAAAAAAAAAAAAAAAAAAAAAAAAAAAAAAAAAAAAAAAAAAAAAAAAAAAAAAAAAAAAAAAAAAAAAAAAAAAAAAAAAAAAAAAAAAAAAAAAAAAAAAAAAAAAAAAAAAAAAAAAAAAAAAAAAAAAAAAAAAAAAAAAAAAAAAAAAAAAAAAAAAAAAAAAAAAAAAAAAAAAAAAAAAAAAAAAAAAAAAAAAAAAAAAAAAAAAAAAAAAAAAAAAAAAAAAAAAAAAAAAAAAAAAAAAAAAAAAAAAAAAAAAAAAAAAAAAAAAAAAAAAAAAAAAAAAAAAAAAAAAAAAAAAAAAAAAAAAAAAAAAAAAAAAAAAAAAAAAAAAAAAAAAAAAAAAAAAAAAAAAAAAAAAAAAAAAAAAAAAAAAAAAAAAAAAAAAAAAAAAAAAAAAAAAAAAAAAAAAAAAAAAAAAAAAAAAAAAAAAAAAAAAAAAAAAAAAAAAAAAAAAAAAAAAAAAAAAAAAAAAAAAAAAAAAAAAAAAAAAAAAAAAAAAAAAAAAAAAAAAAAAAAAAAAAAAAAAAAAAAAAAAAAAAAAAAAAAAAAAAAAAAAAAAAAAAAAAAAAAAAAAAAAAAAAAAAAAAAAAAAAAAAAAAAAAAAAAAAAAAAAAAAAAAAAAAAAAAAAAAAAAAAAAAAAAAAAAAAAAAAAAAAAAAAAAAAAAAAAAAAAAAAAAAAAAAAAAAAAAAAAAAAAAAAAAAAAAAAAAAAAAAAAAAAAAAAAAAAAAAAAAAAAAAAAAAAAAAAAAAAAAAAAAAAAAAAAAAAAAAAAAAAAAAAAAAAAAAAAAAAAAAAAAAAAAAAAAAAAAAAAAAAAAAAAAAAAAAAAAAAAAAAAAAAAAAAAAAAAAAAAAAAAAAAAAAAAAAAAAAAAAAAAAAAAAAAAAAAAAAAAAAAAAAAAAAAAAAAAAAAAAAAAAAAAAAAAAAAAAAAAAAAAAAAAAAAAAAAAAAAAAAAAAAAAAAAAAAAAAAAAAAAAAAAAAAAAAAAAAAAAAAAAAAAAAAAAAAAAAAAAAAAAAAAAAAAAAAAAAAAAAAAAAAAAAAAAAAAAAAAAAAAAAAAAAAAAAAAAAAAAAAAAAAAAAAAAAAAAAAAAAAAAAAAAAAAAAAAAAAAAAAAAAAAAAAAAAAAAAAAAAAAAAAAAAAAAAAAAAAAAAAAAAAAAAAAAAAAAAAAAAAAAAAAAAAAAAAAAAAAAAAAAAAAAAAAAAAAAAAAAAAAAAAAAAAAAAAAAAAAAAAAAAAAAAAAAAAAAAAAAAAAAAAAAAAAAAAAAAAAAAAAAAAAAAAAAAAAAAAAAAAAAAAAAAAAAAAAAAAAAAAAAAAAAAAAAAAAAAAAAAAAAAAAAAAAAAAAAAAAAAAAAAAAAAAAAAAAAAAAAAAAAAAAAAAAAAAAAAAAAAAAAAAAAAAAAAAAAAAAAAAAAAAAAAAAAAAAAAAAAAAAAAAAAAAAAAAAAAAAAAAAAAAAAAAAAAAAAAAAAAAAAAAAAAAAAAAAAAAAAAAAAAAAAAAAAAAAAAAAAAAAAAAAAAAAAAAAAAAAAAAAAAAAAAAAAAAAAAAAAAAAAAAAAAAAAAAAAAAAAAAAAAAAAAAAAAAAAAAAAAAAAAAAAAAAAAAAAAAAAAAAAAAAAAAAAAAAAAAAAAAAAAAAAAAAAAAAAAAAAAAAAAAAAAAAAAAAAAAAAAAAAAAAAAAAAAAAAAAAAAAAAAAAAAAAAAAAAAAAAAAAAAAAAAAAAAAAAAAAAAAAAAAAAAAAAAAAAAAAAAAAAAAAAAAAAAAAAAAAAAAAAAAAAAAAAAAAAAAAAAAAAAAAAAAAAAAAAAAAAAAAAAAAAAAAAAAAAAAAAAAAAAAAAAAAAAAAAAAAAAAAAAAAAAAAAAAAAAAAAAAAAAAAAAAAAAAAAAAAAAAAAAAAAAAAAAAAAAAAAAAAAAAAAAAAAAAAAAAAAAAAAAAAAAAAAAAAAAAAAAAAAAAAAAAAAAAAAAAAAAAAAAAAAAAAAAAAAAAAAAAAAAAAAAAAAAAAAAAAAAAAAAAAAAAAAAAAAAAAAAAAAAAAAAAAAAAAAAAAAAAAAAAAAAAAAAAAAAAAAAAAAAAAAAAAAAAAAAAAAAAAAAAAAAAAAAAAAAAAAAAAAAAAAAAAAAAAAAAAAAAAAAAAAAAAAAAAAAAAAAAAAAAAAAAAAAAAAAAAAAAAAAAAAAAAAAAAAAAAAAAAAAAAAAAAAAAAAAAAAAAAAAAAAAAAAAAAAAAAAAAAAAAAAAAAAAAAAAAAAAAAAAAAAAAAAAAAAAAAAAAAAAAAAAAAAAAAAAAAAAAAAAAAAAAAAAAAAAAAAAAAAAAAAAAAAAAAAAAAAAAAAAAPZYQEWX4uX4TIUAO67tbz2xD5v+ZNNTikWQgxSIkdQ1kWLxPeEqJVk7vFjK/vmhX34pjsjrYLg5T9V93cczwxZEvow=</c2pa:manifest></metadata>
<defs><linearGradient id="pack" x1="0" y1="0" x2="0" y2="1"><stop offset="0" stop-color="#6a5fd6"/><stop offset="0.45" stop-color="#4a3fb0"/><stop offset="1" stop-color="#2f2780"/></linearGradient><linearGradient id="pack2" x1="0" y1="0" x2="0" y2="1"><stop offset="0" stop-color="#5b50c4"/><stop offset="1" stop-color="#241d6b"/></linearGradient><linearGradient id="pocket" x1="0" y1="0" x2="0" y2="1"><stop offset="0" stop-color="#7b70e0"/><stop offset="1" stop-color="#4336a3"/></linearGradient><linearGradient id="paper" x1="0" y1="0" x2="0" y2="1"><stop offset="0" stop-color="#ffffff"/><stop offset="1" stop-color="#e3e7ef"/></linearGradient><radialGradient id="hole" cx="0.5" cy="0.45" r="0.7"><stop offset="0" stop-color="#2a2461"/><stop offset="0.7" stop-color="#16123a"/><stop offset="1" stop-color="#0c0a24"/></radialGradient><linearGradient id="shroud" x1="0" y1="0" x2="0" y2="1"><stop offset="0" stop-color="#6b7585"/><stop offset="0.5" stop-color="#434c5c"/><stop offset="1" stop-color="#232a38"/></linearGradient><linearGradient id="pcb" x1="0" y1="0" x2="0" y2="1"><stop offset="0" stop-color="#1f6b4a"/><stop offset="1" stop-color="#0d3a28"/></linearGradient><linearGradient id="fan" x1="0" y1="0" x2="0" y2="1"><stop offset="0" stop-color="#58616f"/><stop offset="1" stop-color="#2b3240"/></linearGradient></defs>
<g transform="translate(320 280) rotate(180) scale(0.64) translate(-450 -429)"><path d="M292,300 Q292,236 360,232 L540,232 Q608,236 608,300 L622,566 Q626,624 566,626 L334,626 Q274,624 278,566 Z" fill="url(#pack)" stroke="#241f3d" stroke-width="5" stroke-linejoin="round" stroke-linecap="round"/><path d="M540,232 Q608,236 608,300 L622,566 Q626,624 566,626 L512,626 Q560,560 552,430 Q546,318 540,232 Z" fill="url(#pack2)" stroke="none" stroke-width="0" stroke-linejoin="round" stroke-linecap="round" opacity="0.5"/><path d="M330,452 L570,452 Q584,452 584,468 L590,576 Q592,600 566,600 L336,600 Q310,600 312,576 Z" fill="url(#pocket)" stroke="#241f3d" stroke-width="4.5" stroke-linejoin="round" stroke-linecap="round"/><ellipse cx="424.0" cy="470.0" rx="9.0" ry="9.0" fill="#f3c04b" stroke="#241f3d" stroke-width="3"/><ellipse cx="476.0" cy="470.0" rx="9.0" ry="9.0" fill="#f3c04b" stroke="#241f3d" stroke-width="3"/><path d="M352,246 Q334,330 346,452" fill="none" stroke="#3a2f96" stroke-width="16" stroke-linejoin="round" stroke-linecap="round"/><path d="M548,246 Q566,330 554,452" fill="none" stroke="#3a2f96" stroke-width="16" stroke-linejoin="round" stroke-linecap="round"/><ellipse cx="450.0" cy="254.0" rx="160.0" ry="52.0" fill="url(#hole)" stroke="#241f3d" stroke-width="5"/><path d="M300,226 Q450,176 600,226 Q600,250 586,258 Q450,210 314,258 Q300,250 300,226 Z" fill="url(#pack2)" stroke="#241f3d" stroke-width="4.5" stroke-linejoin="round" stroke-linecap="round"/></g><g transform="translate(320 520) rotate(-10) scale(0.62)"><polygon points="-150.0,-46.0 150.0,-46.0 150.0,46.0 -150.0,46.0" fill="url(#pcb)" stroke="#241f3d" stroke-width="5" stroke-linejoin="round"/><polygon points="-150.0,22.0 150.0,22.0 150.0,46.0 -150.0,46.0" fill="#d8a93a" stroke="none" stroke-width="0" stroke-linejoin="round"/><line x1="-140.0" y1="26.0" x2="-140.0" y2="44.0" stroke="#8a6a1c" stroke-width="3" stroke-linecap="round" opacity="0.8"/><line x1="-124.0" y1="26.0" x2="-124.0" y2="44.0" stroke="#8a6a1c" stroke-width="3" stroke-linecap="round" opacity="0.8"/><line x1="-108.0" y1="26.0" x2="-108.0" y2="44.0" stroke="#8a6a1c" stroke-width="3" stroke-linecap="round" opacity="0.8"/><line x1="-92.0" y1="26.0" x2="-92.0" y2="44.0" stroke="#8a6a1c" stroke-width="3" stroke-linecap="round" opacity="0.8"/><line x1="-76.0" y1="26.0" x2="-76.0" y2="44.0" stroke="#8a6a1c" stroke-width="3" stroke-linecap="round" opacity="0.8"/><line x1="-60.0" y1="26.0" x2="-60.0" y2="44.0" stroke="#8a6a1c" stroke-width="3" stroke-linecap="round" opacity="0.8"/><line x1="-44.0" y1="26.0" x2="-44.0" y2="44.0" stroke="#8a6a1c" stroke-width="3" stroke-linecap="round" opacity="0.8"/><line x1="-28.0" y1="26.0" x2="-28.0" y2="44.0" stroke="#8a6a1c" stroke-width="3" stroke-linecap="round" opacity="0.8"/><line x1="-12.0" y1="26.0" x2="-12.0" y2="44.0" stroke="#8a6a1c" stroke-width="3" stroke-linecap="round" opacity="0.8"/><line x1="4.0" y1="26.0" x2="4.0" y2="44.0" stroke="#8a6a1c" stroke-width="3" stroke-linecap="round" opacity="0.8"/><line x1="20.0" y1="26.0" x2="20.0" y2="44.0" stroke="#8a6a1c" stroke-width="3" stroke-linecap="round" opacity="0.8"/><line x1="36.0" y1="26.0" x2="36.0" y2="44.0" stroke="#8a6a1c" stroke-width="3" stroke-linecap="round" opacity="0.8"/><line x1="52.0" y1="26.0" x2="52.0" y2="44.0" stroke="#8a6a1c" stroke-width="3" stroke-linecap="round" opacity="0.8"/><line x1="68.0" y1="26.0" x2="68.0" y2="44.0" stroke="#8a6a1c" stroke-width="3" stroke-linecap="round" opacity="0.8"/><line x1="84.0" y1="26.0" x2="84.0" y2="44.0" stroke="#8a6a1c" stroke-width="3" stroke-linecap="round" opacity="0.8"/><line x1="100.0" y1="26.0" x2="100.0" y2="44.0" stroke="#8a6a1c" stroke-width="3" stroke-linecap="round" opacity="0.8"/><line x1="116.0" y1="26.0" x2="116.0" y2="44.0" stroke="#8a6a1c" stroke-width="3" stroke-linecap="round" opacity="0.8"/><line x1="132.0" y1="26.0" x2="132.0" y2="44.0" stroke="#8a6a1c" stroke-width="3" stroke-linecap="round" opacity="0.8"/><line x1="148.0" y1="26.0" x2="148.0" y2="44.0" stroke="#8a6a1c" stroke-width="3" stroke-linecap="round" opacity="0.8"/><polygon points="-140.0,-60.0 140.0,-60.0 154.0,-34.0 154.0,30.0 -154.0,30.0 -154.0,-34.0" fill="url(#shroud)" stroke="#241f3d" stroke-width="5" stroke-linejoin="round"/><ellipse cx="-72.0" cy="-16.0" rx="52.0" ry="36.0" fill="url(#fan)" stroke="#241f3d" stroke-width="4"/><ellipse cx="-72.0" cy="-16.0" rx="13.0" ry="9.0" fill="#8f98a6" stroke="#241f3d" stroke-width="3"/><path d="M-59,-16 Q-42,-2 -24,-8" fill="none" stroke="#99a3b2" stroke-width="4" stroke-linejoin="round" stroke-linecap="round" opacity="0.9"/><path d="M-66,-8 Q-75,9 -58,17" fill="none" stroke="#99a3b2" stroke-width="4" stroke-linejoin="round" stroke-linecap="round" opacity="0.9"/><path d="M-78,-8 Q-104,-5 -107,8" fill="none" stroke="#99a3b2" stroke-width="4" stroke-linejoin="round" stroke-linecap="round" opacity="0.9"/><path d="M-85,-16 Q-102,-30 -120,-24" fill="none" stroke="#99a3b2" stroke-width="4" stroke-linejoin="round" stroke-linecap="round" opacity="0.9"/><path d="M-78,-24 Q-69,-41 -86,-49" fill="none" stroke="#99a3b2" stroke-width="4" stroke-linejoin="round" stroke-linecap="round" opacity="0.9"/><path d="M-66,-24 Q-40,-27 -37,-40" fill="none" stroke="#99a3b2" stroke-width="4" stroke-linejoin="round" stroke-linecap="round" opacity="0.9"/><ellipse cx="66.0" cy="-16.0" rx="52.0" ry="36.0" fill="url(#fan)" stroke="#241f3d" stroke-width="4"/><ellipse cx="66.0" cy="-16.0" rx="13.0" ry="9.0" fill="#8f98a6" stroke="#241f3d" stroke-width="3"/><path d="M79,-16 Q96,-2 114,-8" fill="none" stroke="#99a3b2" stroke-width="4" stroke-linejoin="round" stroke-linecap="round" opacity="0.9"/><path d="M72,-8 Q63,9 80,17" fill="none" stroke="#99a3b2" stroke-width="4" stroke-linejoin="round" stroke-linecap="round" opacity="0.9"/><path d="M60,-8 Q34,-5 31,8" fill="none" stroke="#99a3b2" stroke-width="4" stroke-linejoin="round" stroke-linecap="round" opacity="0.9"/><path d="M53,-16 Q36,-30 18,-24" fill="none" stroke="#99a3b2" stroke-width="4" stroke-linejoin="round" stroke-linecap="round" opacity="0.9"/><path d="M59,-24 Q69,-41 52,-49" fill="none" stroke="#99a3b2" stroke-width="4" stroke-linejoin="round" stroke-linecap="round" opacity="0.9"/><path d="M72,-24 Q98,-27 101,-40" fill="none" stroke="#99a3b2" stroke-width="4" stroke-linejoin="round" stroke-linecap="round" opacity="0.9"/><polygon points="154.0,-62.0 176.0,-62.0 176.0,42.0 154.0,42.0" fill="#aeb6c4" stroke="#241f3d" stroke-width="4" stroke-linejoin="round"/><polygon points="158.0,-46.0 172.0,-46.0 172.0,-28.0 158.0,-28.0" fill="#2f3744" stroke="none" stroke-width="0" stroke-linejoin="round"/><polygon points="158.0,-14.0 172.0,-14.0 172.0,4.0 158.0,4.0" fill="#2f3744" stroke="none" stroke-width="0" stroke-linejoin="round"/><polygon points="158.0,18.0 172.0,18.0 172.0,36.0 158.0,36.0" fill="#2f3744" stroke="none" stroke-width="0" stroke-linejoin="round"/><path d="M-120,-54 L120,-54" fill="none" stroke="#7cf0b4" stroke-width="4" stroke-linejoin="round" stroke-linecap="round" opacity="0.85"/></g><g transform="translate(330 668) rotate(12) scale(0.62)"><polygon points="-46.0,-58.0 46.0,-58.0 46.0,58.0 -46.0,58.0" fill="url(#paper)" stroke="#b9bfcd" stroke-width="3" stroke-linejoin="round"/><path d="M-30,30 L-8,-8 L8,8 L32,-34" fill="none" stroke="#e2574c" stroke-width="5" stroke-linejoin="round" stroke-linecap="round"/></g><g transform="translate(310 760) rotate(-32)"><path d="M-28,-30 L28,-30 L22,22 Q20,34 6,34 L-10,34 Q-22,34 -24,22 Z" fill="#f6f2ea" stroke="#241f3d" stroke-width="4" stroke-linejoin="round" stroke-linecap="round"/><path d="M28,-16 Q50,-12 46,6 Q42,18 24,16" fill="none" stroke="#241f3d" stroke-width="6" stroke-linejoin="round" stroke-linecap="round"/></g><g transform="translate(328 872) rotate(-10) scale(0.6)"><polygon points="-46.0,-58.0 46.0,-58.0 46.0,58.0 -46.0,58.0" fill="url(#paper)" stroke="#b9bfcd" stroke-width="3" stroke-linejoin="round"/><polygon points="-32.0,34.0 -20.0,34.0 -20.0,8.0 -32.0,8.0" fill="#4a3fb0" stroke="none" stroke-width="0" stroke-linejoin="round"/><polygon points="-14.0,34.0 -2.0,34.0 -2.0,-12.0 -14.0,-12.0" fill="#4a3fb0" stroke="none" stroke-width="0" stroke-linejoin="round"/><polygon points="4.0,34.0 16.0,34.0 16.0,18.0 4.0,18.0" fill="#4a3fb0" stroke="none" stroke-width="0" stroke-linejoin="round"/><polygon points="22.0,34.0 34.0,34.0 34.0,-2.0 22.0,-2.0" fill="#4a3fb0" stroke="none" stroke-width="0" stroke-linejoin="round"/></g><g transform="translate(312 966) rotate(26)"><polygon points="-46.0,-9.0 34.0,-9.0 34.0,9.0 -46.0,9.0" fill="#f3c04b" stroke="#241f3d" stroke-width="4" stroke-linejoin="round"/><polygon points="34.0,-9.0 58.0,0.0 34.0,9.0" fill="#f6f2ea" stroke="#241f3d" stroke-width="4" stroke-linejoin="round"/><polygon points="-46.0,-9.0 -60.0,-9.0 -60.0,9.0 -46.0,9.0" fill="#e2574c" stroke="#241f3d" stroke-width="4" stroke-linejoin="round"/></g><g transform="translate(326 1046) rotate(7) scale(0.56)"><polygon points="-46.0,-58.0 46.0,-58.0 46.0,58.0 -46.0,58.0" fill="url(#paper)" stroke="#b9bfcd" stroke-width="3" stroke-linejoin="round"/><line x1="-30.0" y1="-26.0" x2="30.0" y2="-26.0" stroke="#aab2c2" stroke-width="5" stroke-linecap="round" opacity="0.85"/><line x1="-30.0" y1="-8.0" x2="30.0" y2="-8.0" stroke="#aab2c2" stroke-width="5" stroke-linecap="round" opacity="0.85"/><line x1="-30.0" y1="10.0" x2="30.0" y2="10.0" stroke="#aab2c2" stroke-width="5" stroke-linecap="round" opacity="0.85"/><line x1="-30.0" y1="28.0" x2="30.0" y2="28.0" stroke="#aab2c2" stroke-width="5" stroke-linecap="round" opacity="0.85"/></g><line x1="170.0" y1="470.0" x2="170.0" y2="524.0" stroke="#241f3d" stroke-width="5" stroke-linecap="round" opacity="0.35"/><line x1="470.0" y1="470.0" x2="470.0" y2="524.0" stroke="#241f3d" stroke-width="5" stroke-linecap="round" opacity="0.35"/><line x1="170.0" y1="700.0" x2="170.0" y2="744.0" stroke="#241f3d" stroke-width="5" stroke-linecap="round" opacity="0.35"/><line x1="470.0" y1="700.0" x2="470.0" y2="744.0" stroke="#241f3d" stroke-width="5" stroke-linecap="round" opacity="0.35"/><line x1="170.0" y1="930.0" x2="170.0" y2="970.0" stroke="#241f3d" stroke-width="5" stroke-linecap="round" opacity="0.35"/><line x1="470.0" y1="930.0" x2="470.0" y2="970.0" stroke="#241f3d" stroke-width="5" stroke-linecap="round" opacity="0.35"/><path d="M452,606.5 L456.5,615.5 L465.5,620 L456.5,624.5 L452,633.5 L447.5,624.5 L438.5,620 L447.5,615.5 Z" fill="#f3c04b" stroke="#241f3d" stroke-width="3" stroke-linejoin="round" stroke-linecap="round"/><path d="M192,828.3 L195.9,836.1 L203.7,840 L195.9,843.9 L192,851.7 L188.1,843.9 L180.3,840 L188.1,836.1 Z" fill="#f3c04b" stroke="#241f3d" stroke-width="3" stroke-linejoin="round" stroke-linecap="round"/><path d="M440,989.2 L443.6,996.4 L450.8,1000 L443.6,1003.6 L440,1010.8 L436.4,1003.6 L429.2,1000 L436.4,996.4 Z" fill="#f3c04b" stroke="#241f3d" stroke-width="3" stroke-linejoin="round" stroke-linecap="round"/>
</svg>
