<?xml version="1.0" encoding="utf-8" standalone="no"?>
<!DOCTYPE svg PUBLIC "-//W3C//DTD SVG 1.1//EN"
  "http://www.w3.org/Graphics/SVG/1.1/DTD/svg11.dtd">
<svg xmlns:xlink="http://www.w3.org/1999/xlink" width="277.3pt" height="183.868pt" viewBox="0 0 277.3 183.868" xmlns="http://www.w3.org/2000/svg" version="1.1">
 <metadata>
  <rdf:RDF xmlns:dc="http://purl.org/dc/elements/1.1/" xmlns:cc="http://creativecommons.org/ns#" xmlns:rdf="http://www.w3.org/1999/02/22-rdf-syntax-ns#">
   <cc:Work>
    <dc:type rdf:resource="http://purl.org/dc/dcmitype/StillImage"/>
    <dc:date>2026-10-09T08:02:09.008090</dc:date>
    <dc:format>image/svg+xml</dc:format>
    <dc:creator>
     <cc:Agent>
      <dc:title>Matplotlib v3.11.2, https://matplotlib.org/</dc:title>
     </cc:Agent>
    </dc:creator>
   </cc:Work>
  </rdf:RDF>
 </metadata>
 <defs>
  <style type="text/css">*{stroke-linejoin: round; stroke-linecap: butt}</style>
 </defs>
 <g id="figure_1">
  <g id="patch_1">
   <path d="M 0 183.868 
L 277.3 183.868 
L 277.3 0 
L 0 0 
L 0 183.868 
z
" style="fill: none"/>
  </g>
  <g id="axes_1">
   <g id="patch_2">
    <path d="M 46.9 129.168 
L 270.1 129.168 
L 270.1 7.2 
L 46.9 7.2 
L 46.9 129.168 
z
" style="fill: none"/>
   </g>
   <g id="matplotlib.axis_1">
    <g id="xtick_1">
     <g id="line2d_1">
      <defs>
       <path id="m6f936f7599" d="M 0 0 
L 0 3 
" style="stroke: #6e6e6e; stroke-width: 0.8"/>
      </defs>
      <g>
       <use xlink:href="#m6f936f7599" x="46.9" y="129.168" style="fill: #6e6e6e; stroke: #6e6e6e; stroke-width: 0.8"/>
      </g>
     </g>
     <g id="text_1">
      <!-- 2 -->
      <g style="fill: #6e6e6e" transform="translate(41.491875 148.584016) scale(0.17 -0.17)">
       <defs>
        <path id="DejaVuSans-15" d="M 1228 531 
L 3431 531 
L 3431 0 
L 469 0 
L 469 531 
Q 828 903 1448 1529 
Q 2069 2156 2228 2338 
Q 2531 2678 2651 2914 
Q 2772 3150 2772 3378 
Q 2772 3750 2511 3984 
Q 2250 4219 1831 4219 
Q 1534 4219 1204 4116 
Q 875 4013 500 3803 
L 500 4441 
Q 881 4594 1212 4672 
Q 1544 4750 1819 4750 
Q 2544 4750 2975 4387 
Q 3406 4025 3406 3419 
Q 3406 3131 3298 2873 
Q 3191 2616 2906 2266 
Q 2828 2175 2409 1742 
Q 1991 1309 1228 531 
z
" transform="scale(0.015625)"/>
       </defs>
       <use xlink:href="#DejaVuSans-15"/>
      </g>
     </g>
    </g>
    <g id="xtick_2">
     <g id="line2d_2">
      <g>
       <use xlink:href="#m6f936f7599" x="98.903368" y="129.168" style="fill: #6e6e6e; stroke: #6e6e6e; stroke-width: 0.8"/>
      </g>
     </g>
     <g id="text_2">
      <!-- 10 -->
      <g style="fill: #6e6e6e" transform="translate(88.087118 148.584016) scale(0.17 -0.17)">
       <defs>
        <path id="DejaVuSans-14" d="M 794 531 
L 1825 531 
L 1825 4091 
L 703 3866 
L 703 4441 
L 1819 4666 
L 2450 4666 
L 2450 531 
L 3481 531 
L 3481 0 
L 794 0 
L 794 531 
z
" transform="scale(0.015625)"/>
        <path id="DejaVuSans-13" d="M 2034 4250 
Q 1547 4250 1301 3770 
Q 1056 3291 1056 2328 
Q 1056 1369 1301 889 
Q 1547 409 2034 409 
Q 2525 409 2770 889 
Q 3016 1369 3016 2328 
Q 3016 3291 2770 3770 
Q 2525 4250 2034 4250 
z
M 2034 4750 
Q 2819 4750 3233 4129 
Q 3647 3509 3647 2328 
Q 3647 1150 3233 529 
Q 2819 -91 2034 -91 
Q 1250 -91 836 529 
Q 422 1150 422 2328 
Q 422 3509 836 4129 
Q 1250 4750 2034 4750 
z
" transform="scale(0.015625)"/>
       </defs>
       <use xlink:href="#DejaVuSans-14"/>
       <use xlink:href="#DejaVuSans-13" transform="translate(63.625 0)"/>
      </g>
     </g>
    </g>
    <g id="xtick_3">
     <g id="line2d_3">
      <g>
       <use xlink:href="#m6f936f7599" x="173.303368" y="129.168" style="fill: #6e6e6e; stroke: #6e6e6e; stroke-width: 0.8"/>
      </g>
     </g>
     <g id="text_3">
      <!-- 100 -->
      <g style="fill: #6e6e6e" transform="translate(157.078993 148.584016) scale(0.17 -0.17)">
       <use xlink:href="#DejaVuSans-14"/>
       <use xlink:href="#DejaVuSans-13" transform="translate(63.625 0)"/>
       <use xlink:href="#DejaVuSans-13" transform="translate(127.25 0)"/>
      </g>
     </g>
    </g>
    <g id="xtick_4">
     <g id="line2d_4">
      <g>
       <use xlink:href="#m6f936f7599" x="247.703368" y="129.168" style="fill: #6e6e6e; stroke: #6e6e6e; stroke-width: 0.8"/>
      </g>
     </g>
     <g id="text_4">
      <!-- 1000 -->
      <g style="fill: #6e6e6e" transform="translate(226.070868 148.584016) scale(0.17 -0.17)">
       <use xlink:href="#DejaVuSans-14"/>
       <use xlink:href="#DejaVuSans-13" transform="translate(63.625 0)"/>
       <use xlink:href="#DejaVuSans-13" transform="translate(127.25 0)"/>
       <use xlink:href="#DejaVuSans-13" transform="translate(190.875 0)"/>
      </g>
     </g>
    </g>
    <g id="xtick_5">
     <g id="line2d_5">
      <defs>
       <path id="m20a2711731" d="M 0 0 
L 0 3 
" style="stroke: #6e6e6e; stroke-width: 0.6"/>
      </defs>
      <g>
       <use xlink:href="#m20a2711731" x="60.00119" y="129.168" style="fill: #6e6e6e; stroke: #6e6e6e; stroke-width: 0.6"/>
      </g>
     </g>
    </g>
    <g id="xtick_6">
     <g id="line2d_6">
      <g>
       <use xlink:href="#m20a2711731" x="69.296632" y="129.168" style="fill: #6e6e6e; stroke: #6e6e6e; stroke-width: 0.6"/>
      </g>
     </g>
    </g>
    <g id="xtick_7">
     <g id="line2d_7">
      <g>
       <use xlink:href="#m20a2711731" x="76.506737" y="129.168" style="fill: #6e6e6e; stroke: #6e6e6e; stroke-width: 0.6"/>
      </g>
     </g>
    </g>
    <g id="xtick_8">
     <g id="line2d_8">
      <g>
       <use xlink:href="#m20a2711731" x="82.397821" y="129.168" style="fill: #6e6e6e; stroke: #6e6e6e; stroke-width: 0.6"/>
      </g>
     </g>
    </g>
    <g id="xtick_9">
     <g id="line2d_9">
      <g>
       <use xlink:href="#m20a2711731" x="87.378662" y="129.168" style="fill: #6e6e6e; stroke: #6e6e6e; stroke-width: 0.6"/>
      </g>
     </g>
    </g>
    <g id="xtick_10">
     <g id="line2d_10">
      <g>
       <use xlink:href="#m20a2711731" x="91.693263" y="129.168" style="fill: #6e6e6e; stroke: #6e6e6e; stroke-width: 0.6"/>
      </g>
     </g>
    </g>
    <g id="xtick_11">
     <g id="line2d_11">
      <g>
       <use xlink:href="#m20a2711731" x="95.499011" y="129.168" style="fill: #6e6e6e; stroke: #6e6e6e; stroke-width: 0.6"/>
      </g>
     </g>
    </g>
    <g id="xtick_12">
     <g id="line2d_12">
      <g>
       <use xlink:href="#m20a2711731" x="121.3" y="129.168" style="fill: #6e6e6e; stroke: #6e6e6e; stroke-width: 0.6"/>
      </g>
     </g>
    </g>
    <g id="xtick_13">
     <g id="line2d_13">
      <g>
       <use xlink:href="#m20a2711731" x="134.40119" y="129.168" style="fill: #6e6e6e; stroke: #6e6e6e; stroke-width: 0.6"/>
      </g>
     </g>
    </g>
    <g id="xtick_14">
     <g id="line2d_14">
      <g>
       <use xlink:href="#m20a2711731" x="143.696632" y="129.168" style="fill: #6e6e6e; stroke: #6e6e6e; stroke-width: 0.6"/>
      </g>
     </g>
    </g>
    <g id="xtick_15">
     <g id="line2d_15">
      <g>
       <use xlink:href="#m20a2711731" x="150.906737" y="129.168" style="fill: #6e6e6e; stroke: #6e6e6e; stroke-width: 0.6"/>
      </g>
     </g>
    </g>
    <g id="xtick_16">
     <g id="line2d_16">
      <g>
       <use xlink:href="#m20a2711731" x="156.797821" y="129.168" style="fill: #6e6e6e; stroke: #6e6e6e; stroke-width: 0.6"/>
      </g>
     </g>
    </g>
    <g id="xtick_17">
     <g id="line2d_17">
      <g>
       <use xlink:href="#m20a2711731" x="161.778662" y="129.168" style="fill: #6e6e6e; stroke: #6e6e6e; stroke-width: 0.6"/>
      </g>
     </g>
    </g>
    <g id="xtick_18">
     <g id="line2d_18">
      <g>
       <use xlink:href="#m20a2711731" x="166.093263" y="129.168" style="fill: #6e6e6e; stroke: #6e6e6e; stroke-width: 0.6"/>
      </g>
     </g>
    </g>
    <g id="xtick_19">
     <g id="line2d_19">
      <g>
       <use xlink:href="#m20a2711731" x="169.899011" y="129.168" style="fill: #6e6e6e; stroke: #6e6e6e; stroke-width: 0.6"/>
      </g>
     </g>
    </g>
    <g id="xtick_20">
     <g id="line2d_20">
      <g>
       <use xlink:href="#m20a2711731" x="195.7" y="129.168" style="fill: #6e6e6e; stroke: #6e6e6e; stroke-width: 0.6"/>
      </g>
     </g>
    </g>
    <g id="xtick_21">
     <g id="line2d_21">
      <g>
       <use xlink:href="#m20a2711731" x="208.80119" y="129.168" style="fill: #6e6e6e; stroke: #6e6e6e; stroke-width: 0.6"/>
      </g>
     </g>
    </g>
    <g id="xtick_22">
     <g id="line2d_22">
      <g>
       <use xlink:href="#m20a2711731" x="218.096632" y="129.168" style="fill: #6e6e6e; stroke: #6e6e6e; stroke-width: 0.6"/>
      </g>
     </g>
    </g>
    <g id="xtick_23">
     <g id="line2d_23">
      <g>
       <use xlink:href="#m20a2711731" x="225.306737" y="129.168" style="fill: #6e6e6e; stroke: #6e6e6e; stroke-width: 0.6"/>
      </g>
     </g>
    </g>
    <g id="xtick_24">
     <g id="line2d_24">
      <g>
       <use xlink:href="#m20a2711731" x="231.197821" y="129.168" style="fill: #6e6e6e; stroke: #6e6e6e; stroke-width: 0.6"/>
      </g>
     </g>
    </g>
    <g id="xtick_25">
     <g id="line2d_25">
      <g>
       <use xlink:href="#m20a2711731" x="236.178662" y="129.168" style="fill: #6e6e6e; stroke: #6e6e6e; stroke-width: 0.6"/>
      </g>
     </g>
    </g>
    <g id="xtick_26">
     <g id="line2d_26">
      <g>
       <use xlink:href="#m20a2711731" x="240.493263" y="129.168" style="fill: #6e6e6e; stroke: #6e6e6e; stroke-width: 0.6"/>
      </g>
     </g>
    </g>
    <g id="xtick_27">
     <g id="line2d_27">
      <g>
       <use xlink:href="#m20a2711731" x="244.299011" y="129.168" style="fill: #6e6e6e; stroke: #6e6e6e; stroke-width: 0.6"/>
      </g>
     </g>
    </g>
    <g id="xtick_28">
     <g id="line2d_28">
      <g>
       <use xlink:href="#m20a2711731" x="270.1" y="129.168" style="fill: #6e6e6e; stroke: #6e6e6e; stroke-width: 0.6"/>
      </g>
     </g>
    </g>
    <g id="text_5">
     <!-- ℓ -->
     <g style="fill: #2e2e2e" transform="translate(153.5425 170.902375) scale(0.24 -0.24)">
      <defs>
       <path id="DejaVuSans-baa" d="M 950 838 
Q 1078 213 1350 213 
Q 1531 213 1766 572 
L 2181 572 
Q 1994 253 1775 88 
Q 1538 -91 1319 -91 
Q 831 -91 634 344 
L 400 0 
L -88 0 
Q 250 459 500 888 
Q 469 1131 469 1397 
Q 469 1872 566 2347 
Q 931 4131 1256 4497 
Q 1481 4750 1866 4750 
Q 2256 4750 2256 4209 
Q 2253 3966 2197 3675 
Q 1972 2484 950 838 
z
M 947 1656 
Q 1531 2744 1709 3613 
Q 1803 4072 1803 4191 
Q 1803 4406 1725 4406 
Q 1384 4134 1081 2516 
Q 997 2063 947 1656 
z
" transform="scale(0.015625)"/>
      </defs>
      <use xlink:href="#DejaVuSans-baa"/>
     </g>
    </g>
   </g>
   <g id="matplotlib.axis_2">
    <g id="ytick_1">
     <g id="line2d_29">
      <defs>
       <path id="meb104b27c2" d="M 0 0 
L -3 0 
" style="stroke: #6e6e6e; stroke-width: 0.8"/>
      </defs>
      <g>
       <use xlink:href="#meb104b27c2" x="46.9" y="121.132085" style="fill: #6e6e6e; stroke: #6e6e6e; stroke-width: 0.8"/>
      </g>
     </g>
    </g>
    <g id="ytick_2">
     <g id="line2d_30">
      <g>
       <use xlink:href="#meb104b27c2" x="46.9" y="19.584635" style="fill: #6e6e6e; stroke: #6e6e6e; stroke-width: 0.8"/>
      </g>
     </g>
    </g>
    <g id="text_6">
     <!-- $C_\ell^{BB}$ -->
     <g style="fill: #2e2e2e" transform="translate(30 89.304) rotate(-90) scale(0.24 -0.24)">
      <defs>
       <path id="DejaVuSans-Oblique-26" d="M 4447 4306 
L 4319 3641 
Q 4019 3944 3683 4091 
Q 3347 4238 2956 4238 
Q 2422 4238 2017 3981 
Q 1613 3725 1319 3200 
Q 1131 2863 1032 2486 
Q 934 2109 934 1728 
Q 934 1091 1264 756 
Q 1594 422 2222 422 
Q 2656 422 3056 561 
Q 3456 700 3834 978 
L 3688 231 
Q 3316 72 2936 -9 
Q 2556 -91 2175 -91 
Q 1278 -91 773 396 
Q 269 884 269 1753 
Q 269 2309 461 2846 
Q 653 3384 1013 3828 
Q 1394 4300 1883 4525 
Q 2372 4750 3022 4750 
Q 3422 4750 3780 4639 
Q 4138 4528 4447 4306 
z
" transform="scale(0.015625)"/>
       <path id="DejaVuSans-Oblique-25" d="M 1081 4666 
L 2694 4666 
Q 3350 4666 3675 4422 
Q 4000 4178 4000 3688 
Q 4000 3238 3720 2911 
Q 3441 2584 2988 2516 
Q 3375 2428 3569 2181 
Q 3763 1934 3763 1522 
Q 3763 819 3242 409 
Q 2722 0 1819 0 
L 172 0 
L 1081 4666 
z
M 1234 2228 
L 903 519 
L 1919 519 
Q 2491 519 2800 781 
Q 3109 1044 3109 1522 
Q 3109 1891 2904 2059 
Q 2700 2228 2247 2228 
L 1234 2228 
z
M 1606 4147 
L 1331 2741 
L 2272 2741 
Q 2775 2741 3058 2959 
Q 3341 3178 3341 3566 
Q 3341 3869 3150 4008 
Q 2959 4147 2541 4147 
L 1606 4147 
z
" transform="scale(0.015625)"/>
       <path id="DejaVuSans-Oblique-ab2" d="M 950 838 
Q 1078 213 1350 213 
Q 1531 213 1766 572 
L 2181 572 
Q 1994 253 1775 88 
Q 1538 -91 1319 -91 
Q 831 -91 634 344 
L 400 0 
L -88 0 
Q 250 459 500 888 
Q 469 1131 469 1397 
Q 469 1872 566 2347 
Q 931 4131 1256 4497 
Q 1481 4750 1866 4750 
Q 2256 4750 2256 4209 
Q 2253 3966 2197 3675 
Q 1972 2484 950 838 
z
M 947 1656 
Q 1531 2744 1709 3613 
Q 1803 4072 1803 4191 
Q 1803 4406 1725 4406 
Q 1384 4134 1081 2516 
Q 997 2063 947 1656 
z
" transform="scale(0.015625)"/>
      </defs>
      <use xlink:href="#DejaVuSans-Oblique-26" transform="translate(0 0.215625)"/>
      <use xlink:href="#DejaVuSans-Oblique-25" transform="translate(77.02474 43.965625) scale(0.7)"/>
      <use xlink:href="#DejaVuSans-Oblique-25" transform="translate(125.047201 43.965625) scale(0.7)"/>
      <use xlink:href="#DejaVuSans-Oblique-ab2" transform="translate(69.824219 -32.9875) scale(0.7)"/>
     </g>
    </g>
   </g>
   <g id="line2d_31">
    <path d="M 46.9 12.744 
L 60.00119 22.970482 
L 69.296632 32.678812 
L 76.506737 42.094154 
L 87.378662 58.346183 
L 91.693263 63.689407 
L 95.499011 66.76412 
L 98.903368 68.159194 
L 101.982984 68.663828 
L 107.380754 68.819563 
L 117.895643 68.912421 
L 128.510105 69.274415 
L 139.382031 69.879417 
L 147.502379 70.54376 
L 154.568558 71.334708 
L 161.313741 72.306999 
L 169.537985 73.735833 
L 178.376396 75.238468 
L 182.759965 75.753063 
L 186.404558 75.959171 
L 189.873474 75.933355 
L 194.212251 75.654962 
L 201.048021 75.201907 
L 203.927874 75.250621 
L 206.456321 75.519991 
L 208.908716 76.013651 
L 211.38749 76.740305 
L 214.602395 77.938288 
L 218.894487 79.515057 
L 221.249599 80.125651 
L 223.987716 80.578569 
L 227.189493 81.140378 
L 228.910807 81.684929 
L 230.490043 82.42084 
L 232.205153 83.473323 
L 237.667104 87.049896 
L 239.799243 87.946212 
L 241.721684 88.832059 
L 242.979991 89.662229 
L 244.263089 90.785965 
L 245.943807 92.589031 
L 248.279803 95.05506 
L 249.768504 96.266125 
L 252.33148 98.279007 
L 253.513573 99.575099 
L 255.068197 101.660795 
L 257.087545 104.308921 
L 259.010859 106.363358 
L 260.305277 107.918423 
L 261.549832 109.79158 
L 264.619878 114.586212 
L 266.731524 117.648674 
L 268.306301 120.474476 
L 270.1 123.624 
L 270.1 123.624 
" clip-path="url(#pdbc5953837)" style="fill: none; stroke: #c0392b; stroke-width: 2.6; stroke-linecap: square"/>
   </g>
   <g id="patch_3">
    <path d="M 46.9 129.168 
L 46.9 7.2 
" style="fill: none; stroke: #6e6e6e; stroke-width: 0.8; stroke-linejoin: miter; stroke-linecap: square"/>
   </g>
   <g id="patch_4">
    <path d="M 46.9 129.168 
L 270.1 129.168 
" style="fill: none; stroke: #6e6e6e; stroke-width: 0.8; stroke-linejoin: miter; stroke-linecap: square"/>
   </g>
  </g>
 </g>
 <defs>
  <clipPath id="pdbc5953837">
   <rect x="46.9" y="7.2" width="223.2" height="121.968"/>
  </clipPath>
 </defs>
</svg>
