<?xml version="1.0" encoding="utf-8" standalone="no"?>
<!DOCTYPE svg PUBLIC "-//W3C//DTD SVG 1.1//EN"
  "http://www.w3.org/Graphics/SVG/1.1/DTD/svg11.dtd">
<svg xmlns:xlink="http://www.w3.org/1999/xlink" width="856.097321pt" height="709.593pt" viewBox="0 0 856.097321 709.593" xmlns="http://www.w3.org/2000/svg" version="1.1">
 <metadata>
  <rdf:RDF xmlns:dc="http://purl.org/dc/elements/1.1/" xmlns:cc="http://creativecommons.org/ns#" xmlns:rdf="http://www.w3.org/1999/02/22-rdf-syntax-ns#">
   <cc:Work>
    <dc:type rdf:resource="http://purl.org/dc/dcmitype/StillImage"/>
    <dc:date>2025-07-16T20:54:18.699597</dc:date>
    <dc:format>image/svg+xml</dc:format>
    <dc:creator>
     <cc:Agent>
      <dc:title>Matplotlib v3.10.3, https://matplotlib.org/</dc:title>
     </cc:Agent>
    </dc:creator>
   </cc:Work>
  </rdf:RDF>
 </metadata>
 <defs>
  <style type="text/css">*{stroke-linejoin: round; stroke-linecap: butt}</style>
 </defs>
 <g id="figure_1">
  <g id="patch_1">
   <path d="M 0 709.593 
L 856.097321 709.593 
L 856.097321 0 
L 0 0 
z
" style="fill: none"/>
  </g>
  <g id="axes_1">
   <g id="patch_2">
    <path d="M 55.249375 337.6315 
L 848.897321 337.6315 
L 848.897321 25.3575 
L 55.249375 25.3575 
z
" style="fill: none"/>
   </g>
   <g id="matplotlib.axis_1">
    <g id="xtick_1">
     <g id="line2d_1">
      <path d="M 371.062968 337.6315 
L 371.062968 25.3575 
" clip-path="url(#p8a3f21a928)" style="fill: none; stroke: #b0b0b0; stroke-opacity: 0.3; stroke-width: 0.8; stroke-linecap: square"/>
     </g>
     <g id="line2d_2">
      <defs>
       <path id="m26018d97e4" d="M 0 0 
L 0 3.5 
" style="stroke: #000000; stroke-width: 0.8"/>
      </defs>
      <g>
       <use xlink:href="#m26018d97e4" x="371.062968" y="337.6315" style="stroke: #000000; stroke-width: 0.8"/>
      </g>
     </g>
    </g>
    <g id="xtick_2">
     <g id="line2d_3">
      <path d="M 771.278548 337.6315 
L 771.278548 25.3575 
" clip-path="url(#p8a3f21a928)" style="fill: none; stroke: #b0b0b0; stroke-opacity: 0.3; stroke-width: 0.8; stroke-linecap: square"/>
     </g>
     <g id="line2d_4">
      <g>
       <use xlink:href="#m26018d97e4" x="771.278548" y="337.6315" style="stroke: #000000; stroke-width: 0.8"/>
      </g>
     </g>
    </g>
    <g id="xtick_3">
     <g id="line2d_5">
      <defs>
       <path id="ma8f48db349" d="M 0 0 
L 0 2 
" style="stroke: #000000; stroke-width: 0.6"/>
      </defs>
      <g>
       <use xlink:href="#ma8f48db349" x="91.324282" y="337.6315" style="stroke: #000000; stroke-width: 0.6"/>
      </g>
     </g>
    </g>
    <g id="xtick_4">
     <g id="line2d_6">
      <g>
       <use xlink:href="#ma8f48db349" x="161.798747" y="337.6315" style="stroke: #000000; stroke-width: 0.6"/>
      </g>
     </g>
    </g>
    <g id="xtick_5">
     <g id="line2d_7">
      <g>
       <use xlink:href="#ma8f48db349" x="211.801176" y="337.6315" style="stroke: #000000; stroke-width: 0.6"/>
      </g>
     </g>
    </g>
    <g id="xtick_6">
     <g id="line2d_8">
      <g>
       <use xlink:href="#ma8f48db349" x="250.586073" y="337.6315" style="stroke: #000000; stroke-width: 0.6"/>
      </g>
     </g>
    </g>
    <g id="xtick_7">
     <g id="line2d_9">
      <g>
       <use xlink:href="#ma8f48db349" x="282.275642" y="337.6315" style="stroke: #000000; stroke-width: 0.6"/>
      </g>
     </g>
    </g>
    <g id="xtick_8">
     <g id="line2d_10">
      <g>
       <use xlink:href="#ma8f48db349" x="309.06879" y="337.6315" style="stroke: #000000; stroke-width: 0.6"/>
      </g>
     </g>
    </g>
    <g id="xtick_9">
     <g id="line2d_11">
      <g>
       <use xlink:href="#ma8f48db349" x="332.278071" y="337.6315" style="stroke: #000000; stroke-width: 0.6"/>
      </g>
     </g>
    </g>
    <g id="xtick_10">
     <g id="line2d_12">
      <g>
       <use xlink:href="#ma8f48db349" x="352.750107" y="337.6315" style="stroke: #000000; stroke-width: 0.6"/>
      </g>
     </g>
    </g>
    <g id="xtick_11">
     <g id="line2d_13">
      <g>
       <use xlink:href="#ma8f48db349" x="491.539862" y="337.6315" style="stroke: #000000; stroke-width: 0.6"/>
      </g>
     </g>
    </g>
    <g id="xtick_12">
     <g id="line2d_14">
      <g>
       <use xlink:href="#ma8f48db349" x="562.014327" y="337.6315" style="stroke: #000000; stroke-width: 0.6"/>
      </g>
     </g>
    </g>
    <g id="xtick_13">
     <g id="line2d_15">
      <g>
       <use xlink:href="#ma8f48db349" x="612.016756" y="337.6315" style="stroke: #000000; stroke-width: 0.6"/>
      </g>
     </g>
    </g>
    <g id="xtick_14">
     <g id="line2d_16">
      <g>
       <use xlink:href="#ma8f48db349" x="650.801654" y="337.6315" style="stroke: #000000; stroke-width: 0.6"/>
      </g>
     </g>
    </g>
    <g id="xtick_15">
     <g id="line2d_17">
      <g>
       <use xlink:href="#ma8f48db349" x="682.491222" y="337.6315" style="stroke: #000000; stroke-width: 0.6"/>
      </g>
     </g>
    </g>
    <g id="xtick_16">
     <g id="line2d_18">
      <g>
       <use xlink:href="#ma8f48db349" x="709.28437" y="337.6315" style="stroke: #000000; stroke-width: 0.6"/>
      </g>
     </g>
    </g>
    <g id="xtick_17">
     <g id="line2d_19">
      <g>
       <use xlink:href="#ma8f48db349" x="732.493651" y="337.6315" style="stroke: #000000; stroke-width: 0.6"/>
      </g>
     </g>
    </g>
    <g id="xtick_18">
     <g id="line2d_20">
      <g>
       <use xlink:href="#ma8f48db349" x="752.965687" y="337.6315" style="stroke: #000000; stroke-width: 0.6"/>
      </g>
     </g>
    </g>
   </g>
   <g id="matplotlib.axis_2">
    <g id="ytick_1">
     <g id="line2d_21">
      <path d="M 55.249375 313.963175 
L 848.897321 313.963175 
" clip-path="url(#p8a3f21a928)" style="fill: none; stroke: #b0b0b0; stroke-opacity: 0.3; stroke-width: 0.8; stroke-linecap: square"/>
     </g>
     <g id="line2d_22">
      <defs>
       <path id="m33123830f2" d="M 0 0 
L -3.5 0 
" style="stroke: #000000; stroke-width: 0.8"/>
      </defs>
      <g>
       <use xlink:href="#m33123830f2" x="55.249375" y="313.963175" style="stroke: #000000; stroke-width: 0.8"/>
      </g>
     </g>
     <g id="text_1">
      <!-- $\mathdefault{10^{-9}}$ -->
      <g transform="translate(24.749375 317.762394) scale(0.1 -0.1)">
       <defs>
        <path id="DejaVuSans-31" d="M 794 531 
L 1825 531 
L 1825 4091 
L 703 3866 
L 703 4441 
L 1819 4666 
L 2450 4666 
L 2450 531 
L 3481 531 
L 3481 0 
L 794 0 
L 794 531 
z
" transform="scale(0.015625)"/>
        <path id="DejaVuSans-30" d="M 2034 4250 
Q 1547 4250 1301 3770 
Q 1056 3291 1056 2328 
Q 1056 1369 1301 889 
Q 1547 409 2034 409 
Q 2525 409 2770 889 
Q 3016 1369 3016 2328 
Q 3016 3291 2770 3770 
Q 2525 4250 2034 4250 
z
M 2034 4750 
Q 2819 4750 3233 4129 
Q 3647 3509 3647 2328 
Q 3647 1150 3233 529 
Q 2819 -91 2034 -91 
Q 1250 -91 836 529 
Q 422 1150 422 2328 
Q 422 3509 836 4129 
Q 1250 4750 2034 4750 
z
" transform="scale(0.015625)"/>
        <path id="DejaVuSans-2212" d="M 678 2272 
L 4684 2272 
L 4684 1741 
L 678 1741 
L 678 2272 
z
" transform="scale(0.015625)"/>
        <path id="DejaVuSans-39" d="M 703 97 
L 703 672 
Q 941 559 1184 500 
Q 1428 441 1663 441 
Q 2288 441 2617 861 
Q 2947 1281 2994 2138 
Q 2813 1869 2534 1725 
Q 2256 1581 1919 1581 
Q 1219 1581 811 2004 
Q 403 2428 403 3163 
Q 403 3881 828 4315 
Q 1253 4750 1959 4750 
Q 2769 4750 3195 4129 
Q 3622 3509 3622 2328 
Q 3622 1225 3098 567 
Q 2575 -91 1691 -91 
Q 1453 -91 1209 -44 
Q 966 3 703 97 
z
M 1959 2075 
Q 2384 2075 2632 2365 
Q 2881 2656 2881 3163 
Q 2881 3666 2632 3958 
Q 2384 4250 1959 4250 
Q 1534 4250 1286 3958 
Q 1038 3666 1038 3163 
Q 1038 2656 1286 2365 
Q 1534 2075 1959 2075 
z
" transform="scale(0.015625)"/>
       </defs>
       <use xlink:href="#DejaVuSans-31" transform="translate(0 0.765625)"/>
       <use xlink:href="#DejaVuSans-30" transform="translate(63.623047 0.765625)"/>
       <use xlink:href="#DejaVuSans-2212" transform="translate(128.203125 39.046875) scale(0.7)"/>
       <use xlink:href="#DejaVuSans-39" transform="translate(186.855469 39.046875) scale(0.7)"/>
      </g>
     </g>
    </g>
    <g id="ytick_2">
     <g id="line2d_23">
      <path d="M 55.249375 241.753468 
L 848.897321 241.753468 
" clip-path="url(#p8a3f21a928)" style="fill: none; stroke: #b0b0b0; stroke-opacity: 0.3; stroke-width: 0.8; stroke-linecap: square"/>
     </g>
     <g id="line2d_24">
      <g>
       <use xlink:href="#m33123830f2" x="55.249375" y="241.753468" style="stroke: #000000; stroke-width: 0.8"/>
      </g>
     </g>
     <g id="text_2">
      <!-- $\mathdefault{10^{-8}}$ -->
      <g transform="translate(24.749375 245.552687) scale(0.1 -0.1)">
       <defs>
        <path id="DejaVuSans-38" d="M 2034 2216 
Q 1584 2216 1326 1975 
Q 1069 1734 1069 1313 
Q 1069 891 1326 650 
Q 1584 409 2034 409 
Q 2484 409 2743 651 
Q 3003 894 3003 1313 
Q 3003 1734 2745 1975 
Q 2488 2216 2034 2216 
z
M 1403 2484 
Q 997 2584 770 2862 
Q 544 3141 544 3541 
Q 544 4100 942 4425 
Q 1341 4750 2034 4750 
Q 2731 4750 3128 4425 
Q 3525 4100 3525 3541 
Q 3525 3141 3298 2862 
Q 3072 2584 2669 2484 
Q 3125 2378 3379 2068 
Q 3634 1759 3634 1313 
Q 3634 634 3220 271 
Q 2806 -91 2034 -91 
Q 1263 -91 848 271 
Q 434 634 434 1313 
Q 434 1759 690 2068 
Q 947 2378 1403 2484 
z
M 1172 3481 
Q 1172 3119 1398 2916 
Q 1625 2713 2034 2713 
Q 2441 2713 2670 2916 
Q 2900 3119 2900 3481 
Q 2900 3844 2670 4047 
Q 2441 4250 2034 4250 
Q 1625 4250 1398 4047 
Q 1172 3844 1172 3481 
z
" transform="scale(0.015625)"/>
       </defs>
       <use xlink:href="#DejaVuSans-31" transform="translate(0 0.765625)"/>
       <use xlink:href="#DejaVuSans-30" transform="translate(63.623047 0.765625)"/>
       <use xlink:href="#DejaVuSans-2212" transform="translate(128.203125 39.046875) scale(0.7)"/>
       <use xlink:href="#DejaVuSans-38" transform="translate(186.855469 39.046875) scale(0.7)"/>
      </g>
     </g>
    </g>
    <g id="ytick_3">
     <g id="line2d_25">
      <path d="M 55.249375 169.543762 
L 848.897321 169.543762 
" clip-path="url(#p8a3f21a928)" style="fill: none; stroke: #b0b0b0; stroke-opacity: 0.3; stroke-width: 0.8; stroke-linecap: square"/>
     </g>
     <g id="line2d_26">
      <g>
       <use xlink:href="#m33123830f2" x="55.249375" y="169.543762" style="stroke: #000000; stroke-width: 0.8"/>
      </g>
     </g>
     <g id="text_3">
      <!-- $\mathdefault{10^{-7}}$ -->
      <g transform="translate(24.749375 173.34298) scale(0.1 -0.1)">
       <defs>
        <path id="DejaVuSans-37" d="M 525 4666 
L 3525 4666 
L 3525 4397 
L 1831 0 
L 1172 0 
L 2766 4134 
L 525 4134 
L 525 4666 
z
" transform="scale(0.015625)"/>
       </defs>
       <use xlink:href="#DejaVuSans-31" transform="translate(0 0.684375)"/>
       <use xlink:href="#DejaVuSans-30" transform="translate(63.623047 0.684375)"/>
       <use xlink:href="#DejaVuSans-2212" transform="translate(128.203125 38.965625) scale(0.7)"/>
       <use xlink:href="#DejaVuSans-37" transform="translate(186.855469 38.965625) scale(0.7)"/>
      </g>
     </g>
    </g>
    <g id="ytick_4">
     <g id="line2d_27">
      <path d="M 55.249375 97.334055 
L 848.897321 97.334055 
" clip-path="url(#p8a3f21a928)" style="fill: none; stroke: #b0b0b0; stroke-opacity: 0.3; stroke-width: 0.8; stroke-linecap: square"/>
     </g>
     <g id="line2d_28">
      <g>
       <use xlink:href="#m33123830f2" x="55.249375" y="97.334055" style="stroke: #000000; stroke-width: 0.8"/>
      </g>
     </g>
     <g id="text_4">
      <!-- $\mathdefault{10^{-6}}$ -->
      <g transform="translate(24.749375 101.133274) scale(0.1 -0.1)">
       <defs>
        <path id="DejaVuSans-36" d="M 2113 2584 
Q 1688 2584 1439 2293 
Q 1191 2003 1191 1497 
Q 1191 994 1439 701 
Q 1688 409 2113 409 
Q 2538 409 2786 701 
Q 3034 994 3034 1497 
Q 3034 2003 2786 2293 
Q 2538 2584 2113 2584 
z
M 3366 4563 
L 3366 3988 
Q 3128 4100 2886 4159 
Q 2644 4219 2406 4219 
Q 1781 4219 1451 3797 
Q 1122 3375 1075 2522 
Q 1259 2794 1537 2939 
Q 1816 3084 2150 3084 
Q 2853 3084 3261 2657 
Q 3669 2231 3669 1497 
Q 3669 778 3244 343 
Q 2819 -91 2113 -91 
Q 1303 -91 875 529 
Q 447 1150 447 2328 
Q 447 3434 972 4092 
Q 1497 4750 2381 4750 
Q 2619 4750 2861 4703 
Q 3103 4656 3366 4563 
z
" transform="scale(0.015625)"/>
       </defs>
       <use xlink:href="#DejaVuSans-31" transform="translate(0 0.765625)"/>
       <use xlink:href="#DejaVuSans-30" transform="translate(63.623047 0.765625)"/>
       <use xlink:href="#DejaVuSans-2212" transform="translate(128.203125 39.046875) scale(0.7)"/>
       <use xlink:href="#DejaVuSans-36" transform="translate(186.855469 39.046875) scale(0.7)"/>
      </g>
     </g>
    </g>
    <g id="ytick_5">
     <g id="line2d_29">
      <defs>
       <path id="m7a6e196320" d="M 0 0 
L -2 0 
" style="stroke: #000000; stroke-width: 0.6"/>
      </defs>
      <g>
       <use xlink:href="#m7a6e196320" x="55.249375" y="335.700463" style="stroke: #000000; stroke-width: 0.6"/>
      </g>
     </g>
    </g>
    <g id="ytick_6">
     <g id="line2d_30">
      <g>
       <use xlink:href="#m7a6e196320" x="55.249375" y="329.982808" style="stroke: #000000; stroke-width: 0.6"/>
      </g>
     </g>
    </g>
    <g id="ytick_7">
     <g id="line2d_31">
      <g>
       <use xlink:href="#m7a6e196320" x="55.249375" y="325.1486" style="stroke: #000000; stroke-width: 0.6"/>
      </g>
     </g>
    </g>
    <g id="ytick_8">
     <g id="line2d_32">
      <g>
       <use xlink:href="#m7a6e196320" x="55.249375" y="320.961019" style="stroke: #000000; stroke-width: 0.6"/>
      </g>
     </g>
    </g>
    <g id="ytick_9">
     <g id="line2d_33">
      <g>
       <use xlink:href="#m7a6e196320" x="55.249375" y="317.26731" style="stroke: #000000; stroke-width: 0.6"/>
      </g>
     </g>
    </g>
    <g id="ytick_10">
     <g id="line2d_34">
      <g>
       <use xlink:href="#m7a6e196320" x="55.249375" y="292.225887" style="stroke: #000000; stroke-width: 0.6"/>
      </g>
     </g>
    </g>
    <g id="ytick_11">
     <g id="line2d_35">
      <g>
       <use xlink:href="#m7a6e196320" x="55.249375" y="279.510389" style="stroke: #000000; stroke-width: 0.6"/>
      </g>
     </g>
    </g>
    <g id="ytick_12">
     <g id="line2d_36">
      <g>
       <use xlink:href="#m7a6e196320" x="55.249375" y="270.4886" style="stroke: #000000; stroke-width: 0.6"/>
      </g>
     </g>
    </g>
    <g id="ytick_13">
     <g id="line2d_37">
      <g>
       <use xlink:href="#m7a6e196320" x="55.249375" y="263.490756" style="stroke: #000000; stroke-width: 0.6"/>
      </g>
     </g>
    </g>
    <g id="ytick_14">
     <g id="line2d_38">
      <g>
       <use xlink:href="#m7a6e196320" x="55.249375" y="257.773102" style="stroke: #000000; stroke-width: 0.6"/>
      </g>
     </g>
    </g>
    <g id="ytick_15">
     <g id="line2d_39">
      <g>
       <use xlink:href="#m7a6e196320" x="55.249375" y="252.938893" style="stroke: #000000; stroke-width: 0.6"/>
      </g>
     </g>
    </g>
    <g id="ytick_16">
     <g id="line2d_40">
      <g>
       <use xlink:href="#m7a6e196320" x="55.249375" y="248.751312" style="stroke: #000000; stroke-width: 0.6"/>
      </g>
     </g>
    </g>
    <g id="ytick_17">
     <g id="line2d_41">
      <g>
       <use xlink:href="#m7a6e196320" x="55.249375" y="245.057603" style="stroke: #000000; stroke-width: 0.6"/>
      </g>
     </g>
    </g>
    <g id="ytick_18">
     <g id="line2d_42">
      <g>
       <use xlink:href="#m7a6e196320" x="55.249375" y="220.016181" style="stroke: #000000; stroke-width: 0.6"/>
      </g>
     </g>
    </g>
    <g id="ytick_19">
     <g id="line2d_43">
      <g>
       <use xlink:href="#m7a6e196320" x="55.249375" y="207.300682" style="stroke: #000000; stroke-width: 0.6"/>
      </g>
     </g>
    </g>
    <g id="ytick_20">
     <g id="line2d_44">
      <g>
       <use xlink:href="#m7a6e196320" x="55.249375" y="198.278893" style="stroke: #000000; stroke-width: 0.6"/>
      </g>
     </g>
    </g>
    <g id="ytick_21">
     <g id="line2d_45">
      <g>
       <use xlink:href="#m7a6e196320" x="55.249375" y="191.281049" style="stroke: #000000; stroke-width: 0.6"/>
      </g>
     </g>
    </g>
    <g id="ytick_22">
     <g id="line2d_46">
      <g>
       <use xlink:href="#m7a6e196320" x="55.249375" y="185.563395" style="stroke: #000000; stroke-width: 0.6"/>
      </g>
     </g>
    </g>
    <g id="ytick_23">
     <g id="line2d_47">
      <g>
       <use xlink:href="#m7a6e196320" x="55.249375" y="180.729187" style="stroke: #000000; stroke-width: 0.6"/>
      </g>
     </g>
    </g>
    <g id="ytick_24">
     <g id="line2d_48">
      <g>
       <use xlink:href="#m7a6e196320" x="55.249375" y="176.541605" style="stroke: #000000; stroke-width: 0.6"/>
      </g>
     </g>
    </g>
    <g id="ytick_25">
     <g id="line2d_49">
      <g>
       <use xlink:href="#m7a6e196320" x="55.249375" y="172.847897" style="stroke: #000000; stroke-width: 0.6"/>
      </g>
     </g>
    </g>
    <g id="ytick_26">
     <g id="line2d_50">
      <g>
       <use xlink:href="#m7a6e196320" x="55.249375" y="147.806474" style="stroke: #000000; stroke-width: 0.6"/>
      </g>
     </g>
    </g>
    <g id="ytick_27">
     <g id="line2d_51">
      <g>
       <use xlink:href="#m7a6e196320" x="55.249375" y="135.090976" style="stroke: #000000; stroke-width: 0.6"/>
      </g>
     </g>
    </g>
    <g id="ytick_28">
     <g id="line2d_52">
      <g>
       <use xlink:href="#m7a6e196320" x="55.249375" y="126.069186" style="stroke: #000000; stroke-width: 0.6"/>
      </g>
     </g>
    </g>
    <g id="ytick_29">
     <g id="line2d_53">
      <g>
       <use xlink:href="#m7a6e196320" x="55.249375" y="119.071343" style="stroke: #000000; stroke-width: 0.6"/>
      </g>
     </g>
    </g>
    <g id="ytick_30">
     <g id="line2d_54">
      <g>
       <use xlink:href="#m7a6e196320" x="55.249375" y="113.353688" style="stroke: #000000; stroke-width: 0.6"/>
      </g>
     </g>
    </g>
    <g id="ytick_31">
     <g id="line2d_55">
      <g>
       <use xlink:href="#m7a6e196320" x="55.249375" y="108.51948" style="stroke: #000000; stroke-width: 0.6"/>
      </g>
     </g>
    </g>
    <g id="ytick_32">
     <g id="line2d_56">
      <g>
       <use xlink:href="#m7a6e196320" x="55.249375" y="104.331899" style="stroke: #000000; stroke-width: 0.6"/>
      </g>
     </g>
    </g>
    <g id="ytick_33">
     <g id="line2d_57">
      <g>
       <use xlink:href="#m7a6e196320" x="55.249375" y="100.63819" style="stroke: #000000; stroke-width: 0.6"/>
      </g>
     </g>
    </g>
    <g id="ytick_34">
     <g id="line2d_58">
      <g>
       <use xlink:href="#m7a6e196320" x="55.249375" y="75.596767" style="stroke: #000000; stroke-width: 0.6"/>
      </g>
     </g>
    </g>
    <g id="ytick_35">
     <g id="line2d_59">
      <g>
       <use xlink:href="#m7a6e196320" x="55.249375" y="62.881269" style="stroke: #000000; stroke-width: 0.6"/>
      </g>
     </g>
    </g>
    <g id="ytick_36">
     <g id="line2d_60">
      <g>
       <use xlink:href="#m7a6e196320" x="55.249375" y="53.859479" style="stroke: #000000; stroke-width: 0.6"/>
      </g>
     </g>
    </g>
    <g id="ytick_37">
     <g id="line2d_61">
      <g>
       <use xlink:href="#m7a6e196320" x="55.249375" y="46.861636" style="stroke: #000000; stroke-width: 0.6"/>
      </g>
     </g>
    </g>
    <g id="ytick_38">
     <g id="line2d_62">
      <g>
       <use xlink:href="#m7a6e196320" x="55.249375" y="41.143981" style="stroke: #000000; stroke-width: 0.6"/>
      </g>
     </g>
    </g>
    <g id="ytick_39">
     <g id="line2d_63">
      <g>
       <use xlink:href="#m7a6e196320" x="55.249375" y="36.309773" style="stroke: #000000; stroke-width: 0.6"/>
      </g>
     </g>
    </g>
    <g id="ytick_40">
     <g id="line2d_64">
      <g>
       <use xlink:href="#m7a6e196320" x="55.249375" y="32.122192" style="stroke: #000000; stroke-width: 0.6"/>
      </g>
     </g>
    </g>
    <g id="ytick_41">
     <g id="line2d_65">
      <g>
       <use xlink:href="#m7a6e196320" x="55.249375" y="28.428483" style="stroke: #000000; stroke-width: 0.6"/>
      </g>
     </g>
    </g>
    <g id="text_5">
     <!-- \ell$ -->
     <g transform="translate(17.837812 196.502937) rotate(-90) scale(0.14 -0.14)">
      <defs>
       <path id="DejaVuSans-5c" d="M 531 4666 
L 2156 -594 
L 1625 -594 
L 0 4666 
L 531 4666 
z
" transform="scale(0.015625)"/>
       <path id="DejaVuSans-65" d="M 3597 1894 
L 3597 1613 
L 953 1613 
Q 991 1019 1311 708 
Q 1631 397 2203 397 
Q 2534 397 2845 478 
Q 3156 559 3463 722 
L 3463 178 
Q 3153 47 2828 -22 
Q 2503 -91 2169 -91 
Q 1331 -91 842 396 
Q 353 884 353 1716 
Q 353 2575 817 3079 
Q 1281 3584 2069 3584 
Q 2775 3584 3186 3129 
Q 3597 2675 3597 1894 
z
M 3022 2063 
Q 3016 2534 2758 2815 
Q 2500 3097 2075 3097 
Q 1594 3097 1305 2825 
Q 1016 2553 972 2059 
L 3022 2063 
z
" transform="scale(0.015625)"/>
       <path id="DejaVuSans-6c" d="M 603 4863 
L 1178 4863 
L 1178 0 
L 603 0 
L 603 4863 
z
" transform="scale(0.015625)"/>
       <path id="DejaVuSans-24" d="M 2163 -941 
L 1850 -941 
L 1847 0 
Q 1519 6 1191 76 
Q 863 147 531 288 
L 531 850 
Q 850 650 1176 548 
Q 1503 447 1850 444 
L 1850 1869 
Q 1159 1981 845 2250 
Q 531 2519 531 2988 
Q 531 3497 872 3790 
Q 1213 4084 1850 4128 
L 1850 4863 
L 2163 4863 
L 2163 4138 
Q 2453 4125 2725 4076 
Q 2997 4028 3256 3944 
L 3256 3397 
Q 2997 3528 2723 3600 
Q 2450 3672 2163 3684 
L 2163 2350 
Q 2872 2241 3206 1959 
Q 3541 1678 3541 1191 
Q 3541 663 3186 358 
Q 2831 53 2163 6 
L 2163 -941 
z
M 1850 2406 
L 1850 3688 
Q 1488 3647 1297 3481 
Q 1106 3316 1106 3041 
Q 1106 2772 1282 2622 
Q 1459 2472 1850 2406 
z
M 2163 1806 
L 2163 453 
Q 2559 506 2761 678 
Q 2963 850 2963 1131 
Q 2963 1406 2770 1568 
Q 2578 1731 2163 1806 
z
" transform="scale(0.015625)"/>
      </defs>
      <use xlink:href="#DejaVuSans-5c"/>
      <use xlink:href="#DejaVuSans-65" transform="translate(33.691406 0)"/>
      <use xlink:href="#DejaVuSans-6c" transform="translate(95.214844 0)"/>
      <use xlink:href="#DejaVuSans-6c" transform="translate(122.998047 0)"/>
      <use xlink:href="#DejaVuSans-24" transform="translate(150.78125 0)"/>
     </g>
    </g>
   </g>
   <g id="line2d_66">
    <path d="M 91.324282 40.177395 
L 161.798747 65.765193 
L 211.801176 83.965573 
L 250.586073 98.118062 
L 282.275642 109.710172 
L 309.06879 119.53539 
L 332.278071 128.067354 
L 352.750107 135.611573 
L 371.062968 142.376644 
L 387.628965 148.511353 
L 402.752536 154.125556 
L 416.664872 159.30268 
L 429.545684 164.107575 
L 441.537433 168.591647 
L 452.754965 172.796341 
L 463.292216 176.755552 
L 473.227001 180.497361 
L 482.624502 184.045288 
L 491.539862 187.419233 
L 500.02015 190.636181 
L 508.10586 193.710744 
L 515.832083 196.655584 
L 523.22943 199.481748 
L 530.324759 202.198928 
L 537.141767 204.815674 
L 543.701467 207.33957 
L 550.022579 209.77737 
L 556.121851 212.135118 
L 562.014327 214.418244 
L 567.713573 216.631641 
L 573.231859 218.779738 
L 578.580325 220.866555 
L 583.769111 222.895751 
L 588.807476 224.870667 
L 593.703896 226.794361 
L 598.46615 228.669641 
L 603.101396 230.49909 
L 607.616232 232.285088 
L 612.016756 234.029837 
L 616.308614 235.735372 
L 620.497044 237.403585 
L 624.586913 239.036233 
L 628.582754 240.634949 
L 632.488793 242.201261 
L 636.308978 243.736591 
L 640.047002 245.242274 
L 643.706325 246.719557 
L 647.290192 248.169611 
L 650.801654 249.593538 
L 654.243576 250.992371 
L 657.618661 252.367085 
L 660.929455 253.7186 
L 664.178361 255.047782 
L 667.367651 256.355452 
L 670.499473 257.642384 
L 673.575862 258.909313 
L 676.598745 260.156934 
L 679.569953 261.385907 
L 682.491222 262.596861 
L 685.364203 263.790389 
L 688.190468 264.967059 
L 690.97151 266.127411 
L 693.708754 267.271958 
L 696.403558 268.401191 
L 699.057219 269.515576 
L 701.670974 270.615562 
L 704.246005 271.701573 
L 706.783443 272.77402 
L 709.28437 273.833291 
L 711.749822 274.87976 
L 714.18079 275.913786 
L 716.578227 276.935713 
L 718.943045 277.945868 
L 721.276119 278.944569 
L 723.578291 279.932118 
L 725.850368 280.908808 
L 728.093127 281.874918 
L 730.307315 282.830718 
L 732.493651 283.776467 
L 734.652827 284.712416 
L 736.785509 285.638805 
L 738.89234 286.555864 
L 740.973939 287.463819 
L 743.030902 288.362884 
L 745.063808 289.253268 
L 747.073211 290.13517 
L 749.059648 291.008786 
L 751.02364 291.874302 
L 752.965687 292.731899 
L 754.886275 293.581752 
L 756.785872 294.424031 
L 758.664933 295.258899 
L 760.523896 296.086514 
L 762.363188 296.907032 
L 764.183219 297.720599 
L 765.98439 298.52736 
L 767.767087 299.327455 
L 769.531685 300.121018 
L 771.278548 300.908182 
L 773.008029 301.689074 
L 774.720471 302.463817 
L 776.416205 303.232531 
L 778.095556 303.995333 
L 779.758836 304.752335 
L 781.40635 305.503649 
L 783.038394 306.24938 
L 784.655256 306.989633 
L 786.257216 307.724508 
L 787.844546 308.454104 
L 789.41751 309.178516 
L 790.976368 309.897837 
L 792.521368 310.612158 
L 794.052756 311.321567 
L 795.570769 312.02615 
L 797.07564 312.72599 
L 798.567592 313.421168 
L 800.046847 314.111765 
L 801.513619 314.797857 
L 802.968116 315.479519 
L 804.410543 316.156826 
L 805.841098 316.829849 
L 807.259974 317.498658 
L 808.667362 318.163321 
L 810.063445 318.823904 
L 811.448404 319.480474 
L 812.822414 320.133092 
" clip-path="url(#p8a3f21a928)" style="fill: none; stroke: #0000ff; stroke-opacity: 0.8; stroke-width: 2.5; stroke-linecap: square"/>
   </g>
   <g id="line2d_67">
    <path d="M 91.324282 39.551773 
L 161.798747 65.632684 
L 211.801176 84.503984 
L 250.586073 98.003106 
L 282.275642 110.620523 
L 309.06879 119.470416 
L 332.278071 128.302151 
L 352.750107 135.061377 
L 371.062968 141.5378 
L 387.628965 149.193438 
L 402.752536 153.877075 
L 416.664872 159.044664 
L 429.545684 163.286641 
L 441.537433 168.032528 
L 452.754965 172.100996 
L 463.292216 176.511073 
L 473.227001 181.26632 
L 482.624502 184.499092 
L 491.539862 187.150085 
L 500.02015 191.437853 
L 508.10586 194.030291 
L 515.832083 196.882303 
L 523.22943 199.545783 
L 530.324759 201.95623 
L 537.141767 204.617154 
L 543.701467 206.957964 
L 550.022579 210.362551 
L 556.121851 212.381588 
L 562.014327 214.12974 
L 567.713573 217.355661 
L 573.231859 218.312225 
L 578.580325 220.797488 
L 583.769111 223.727776 
L 588.807476 224.346359 
L 593.703896 226.647367 
L 598.46615 227.55469 
L 603.101396 229.790016 
L 607.616232 233.319078 
L 612.016756 234.199222 
L 616.308614 235.638855 
L 620.497044 237.231496 
L 624.586913 239.624294 
L 628.582754 240.5818 
L 632.488793 242.376465 
L 636.308978 244.273606 
L 640.047002 245.554874 
L 643.706325 247.018817 
L 647.290192 247.034949 
L 650.801654 248.867481 
L 654.243576 250.810688 
L 657.618661 253.441798 
L 660.929455 252.847216 
L 664.178361 256.344698 
L 667.367651 257.17289 
L 670.499473 258.610088 
L 673.575862 259.503244 
L 676.598745 259.119781 
L 679.569953 260.900061 
L 682.491222 262.435746 
L 685.364203 263.784673 
L 688.190468 265.560463 
L 690.97151 265.616849 
L 693.708754 266.370842 
L 696.403558 267.842051 
L 699.057219 269.128317 
L 701.670974 269.988647 
L 704.246005 271.659103 
L 706.783443 274.046081 
L 709.28437 273.126182 
L 711.749822 275.542112 
L 714.18079 275.895905 
L 716.578227 275.817189 
L 718.943045 277.960681 
L 721.276119 277.934035 
L 723.578291 279.836311 
L 725.850368 281.438001 
L 728.093127 281.923659 
L 730.307315 283.167867 
L 732.493651 283.100464 
L 734.652827 284.825733 
L 736.785509 285.191521 
L 738.89234 286.311906 
L 740.973939 288.639466 
L 743.030902 288.831575 
L 745.063808 289.223792 
L 747.073211 290.359035 
L 749.059648 290.909031 
L 751.02364 291.523978 
L 752.965687 292.060291 
L 754.886275 293.374824 
L 756.785872 294.34889 
L 758.664933 294.885242 
L 760.523896 296.474557 
L 762.363188 296.760261 
L 764.183219 297.457932 
L 765.98439 298.46392 
L 767.767087 299.338224 
L 769.531685 299.694555 
L 771.278548 301.532104 
L 773.008029 302.217772 
L 774.720471 302.594496 
L 776.416205 302.565898 
L 778.095556 304.89909 
L 779.758836 304.122798 
L 781.40635 304.627961 
L 783.038394 306.114641 
L 784.655256 307.654589 
L 786.257216 308.781855 
L 787.844546 307.158056 
L 789.41751 309.946242 
L 790.976368 310.217586 
L 792.521368 311.780888 
L 794.052756 312.645463 
L 795.570769 311.602257 
L 797.07564 313.094248 
L 798.567592 312.8915 
L 800.046847 314.328226 
L 801.513619 314.042875 
L 802.968116 315.684769 
L 804.410543 315.561065 
L 805.841098 317.459612 
L 807.259974 317.995886 
L 808.667362 318.769609 
L 810.063445 319.219138 
L 811.448404 320.531624 
L 812.822414 320.776717 
" clip-path="url(#p8a3f21a928)" style="fill: none; stroke: #ff0000; stroke-opacity: 0.8; stroke-width: 2.5; stroke-linecap: square"/>
   </g>
   <g id="line2d_68">
    <path d="M 91.324282 43.48153 
L 161.798747 69.069328 
L 211.801176 87.269708 
L 250.586073 101.422197 
L 282.275642 113.014307 
L 309.06879 122.839525 
L 332.278071 131.371489 
L 352.750107 138.915708 
L 371.062968 145.680779 
L 387.628965 151.815488 
L 402.752536 157.429691 
L 416.664872 162.606815 
L 429.545684 167.41171 
L 441.537433 171.895782 
L 452.754965 176.100476 
L 463.292216 180.059687 
L 473.227001 183.801496 
L 482.624502 187.349423 
L 491.539862 190.723368 
L 500.02015 193.940316 
L 508.10586 197.014879 
L 515.832083 199.959719 
L 523.22943 202.785883 
L 530.324759 205.503063 
L 537.141767 208.119809 
L 543.701467 210.643705 
L 550.022579 213.081505 
L 556.121851 215.439253 
L 562.014327 217.722379 
L 567.713573 219.935776 
L 573.231859 222.083873 
L 578.580325 224.17069 
L 583.769111 226.199886 
L 588.807476 228.174802 
L 593.703896 230.098496 
L 598.46615 231.973776 
L 603.101396 233.803225 
L 607.616232 235.589223 
L 612.016756 237.333972 
L 616.308614 239.039507 
L 620.497044 240.70772 
L 624.586913 242.340368 
L 628.582754 243.939084 
L 632.488793 245.505396 
L 636.308978 247.040726 
L 640.047002 248.546409 
L 643.706325 250.023692 
L 647.290192 251.473746 
L 650.801654 252.897673 
L 654.243576 254.296506 
L 657.618661 255.67122 
L 660.929455 257.022735 
L 664.178361 258.351917 
L 667.367651 259.659587 
L 670.499473 260.946519 
L 673.575862 262.213448 
L 676.598745 263.461069 
L 679.569953 264.690042 
L 682.491222 265.900996 
L 685.364203 267.094524 
L 688.190468 268.271194 
L 690.97151 269.431546 
L 693.708754 270.576093 
L 696.403558 271.705326 
L 699.057219 272.819711 
L 701.670974 273.919697 
L 704.246005 275.005708 
L 706.783443 276.078155 
L 709.28437 277.137426 
L 711.749822 278.183895 
L 714.18079 279.217921 
L 716.578227 280.239848 
L 718.943045 281.250003 
L 721.276119 282.248704 
L 723.578291 283.236253 
L 725.850368 284.212943 
L 728.093127 285.179053 
L 730.307315 286.134853 
L 732.493651 287.080602 
L 734.652827 288.016551 
L 736.785509 288.94294 
L 738.89234 289.859999 
L 740.973939 290.767954 
L 743.030902 291.667019 
L 745.063808 292.557403 
L 747.073211 293.439305 
L 749.059648 294.312921 
L 751.02364 295.178437 
L 752.965687 296.036034 
L 754.886275 296.885887 
L 756.785872 297.728166 
L 758.664933 298.563034 
L 760.523896 299.390649 
L 762.363188 300.211167 
L 764.183219 301.024734 
L 765.98439 301.831495 
L 767.767087 302.63159 
L 769.531685 303.425153 
L 771.278548 304.212317 
L 773.008029 304.993209 
L 774.720471 305.767952 
L 776.416205 306.536666 
L 778.095556 307.299468 
L 779.758836 308.05647 
L 781.40635 308.807784 
L 783.038394 309.553515 
L 784.655256 310.293768 
L 786.257216 311.028643 
L 787.844546 311.758239 
L 789.41751 312.482651 
L 790.976368 313.201972 
L 792.521368 313.916293 
L 794.052756 314.625702 
L 795.570769 315.330285 
L 797.07564 316.030125 
L 798.567592 316.725303 
L 800.046847 317.4159 
L 801.513619 318.101992 
L 802.968116 318.783654 
L 804.410543 319.460961 
L 805.841098 320.133984 
L 807.259974 320.802793 
L 808.667362 321.467456 
L 810.063445 322.128039 
L 811.448404 322.784609 
L 812.822414 323.437227 
" clip-path="url(#p8a3f21a928)" style="fill: none; stroke-dasharray: 11.1,4.8; stroke-dashoffset: 0; stroke: #000000; stroke-opacity: 0.9; stroke-width: 3"/>
   </g>
   <g id="patch_3">
    <path d="M 55.249375 337.6315 
L 55.249375 25.3575 
" style="fill: none; stroke: #000000; stroke-width: 0.8; stroke-linejoin: miter; stroke-linecap: square"/>
   </g>
   <g id="patch_4">
    <path d="M 848.897321 337.6315 
L 848.897321 25.3575 
" style="fill: none; stroke: #000000; stroke-width: 0.8; stroke-linejoin: miter; stroke-linecap: square"/>
   </g>
   <g id="patch_5">
    <path d="M 55.249375 337.6315 
L 848.897321 337.6315 
" style="fill: none; stroke: #000000; stroke-width: 0.8; stroke-linejoin: miter; stroke-linecap: square"/>
   </g>
   <g id="patch_6">
    <path d="M 55.249375 25.3575 
L 848.897321 25.3575 
" style="fill: none; stroke: #000000; stroke-width: 0.8; stroke-linejoin: miter; stroke-linecap: square"/>
   </g>
   <g id="text_6">
    <!-- Angular Power Spectrum Comparison (z_source = 0.5) -->
    <g transform="translate(234.435848 19.3575) scale(0.16 -0.16)">
     <defs>
      <path id="DejaVuSans-41" d="M 2188 4044 
L 1331 1722 
L 3047 1722 
L 2188 4044 
z
M 1831 4666 
L 2547 4666 
L 4325 0 
L 3669 0 
L 3244 1197 
L 1141 1197 
L 716 0 
L 50 0 
L 1831 4666 
z
" transform="scale(0.015625)"/>
      <path id="DejaVuSans-6e" d="M 3513 2113 
L 3513 0 
L 2938 0 
L 2938 2094 
Q 2938 2591 2744 2837 
Q 2550 3084 2163 3084 
Q 1697 3084 1428 2787 
Q 1159 2491 1159 1978 
L 1159 0 
L 581 0 
L 581 3500 
L 1159 3500 
L 1159 2956 
Q 1366 3272 1645 3428 
Q 1925 3584 2291 3584 
Q 2894 3584 3203 3211 
Q 3513 2838 3513 2113 
z
" transform="scale(0.015625)"/>
      <path id="DejaVuSans-67" d="M 2906 1791 
Q 2906 2416 2648 2759 
Q 2391 3103 1925 3103 
Q 1463 3103 1205 2759 
Q 947 2416 947 1791 
Q 947 1169 1205 825 
Q 1463 481 1925 481 
Q 2391 481 2648 825 
Q 2906 1169 2906 1791 
z
M 3481 434 
Q 3481 -459 3084 -895 
Q 2688 -1331 1869 -1331 
Q 1566 -1331 1297 -1286 
Q 1028 -1241 775 -1147 
L 775 -588 
Q 1028 -725 1275 -790 
Q 1522 -856 1778 -856 
Q 2344 -856 2625 -561 
Q 2906 -266 2906 331 
L 2906 616 
Q 2728 306 2450 153 
Q 2172 0 1784 0 
Q 1141 0 747 490 
Q 353 981 353 1791 
Q 353 2603 747 3093 
Q 1141 3584 1784 3584 
Q 2172 3584 2450 3431 
Q 2728 3278 2906 2969 
L 2906 3500 
L 3481 3500 
L 3481 434 
z
" transform="scale(0.015625)"/>
      <path id="DejaVuSans-75" d="M 544 1381 
L 544 3500 
L 1119 3500 
L 1119 1403 
Q 1119 906 1312 657 
Q 1506 409 1894 409 
Q 2359 409 2629 706 
Q 2900 1003 2900 1516 
L 2900 3500 
L 3475 3500 
L 3475 0 
L 2900 0 
L 2900 538 
Q 2691 219 2414 64 
Q 2138 -91 1772 -91 
Q 1169 -91 856 284 
Q 544 659 544 1381 
z
M 1991 3584 
L 1991 3584 
z
" transform="scale(0.015625)"/>
      <path id="DejaVuSans-61" d="M 2194 1759 
Q 1497 1759 1228 1600 
Q 959 1441 959 1056 
Q 959 750 1161 570 
Q 1363 391 1709 391 
Q 2188 391 2477 730 
Q 2766 1069 2766 1631 
L 2766 1759 
L 2194 1759 
z
M 3341 1997 
L 3341 0 
L 2766 0 
L 2766 531 
Q 2569 213 2275 61 
Q 1981 -91 1556 -91 
Q 1019 -91 701 211 
Q 384 513 384 1019 
Q 384 1609 779 1909 
Q 1175 2209 1959 2209 
L 2766 2209 
L 2766 2266 
Q 2766 2663 2505 2880 
Q 2244 3097 1772 3097 
Q 1472 3097 1187 3025 
Q 903 2953 641 2809 
L 641 3341 
Q 956 3463 1253 3523 
Q 1550 3584 1831 3584 
Q 2591 3584 2966 3190 
Q 3341 2797 3341 1997 
z
" transform="scale(0.015625)"/>
      <path id="DejaVuSans-72" d="M 2631 2963 
Q 2534 3019 2420 3045 
Q 2306 3072 2169 3072 
Q 1681 3072 1420 2755 
Q 1159 2438 1159 1844 
L 1159 0 
L 581 0 
L 581 3500 
L 1159 3500 
L 1159 2956 
Q 1341 3275 1631 3429 
Q 1922 3584 2338 3584 
Q 2397 3584 2469 3576 
Q 2541 3569 2628 3553 
L 2631 2963 
z
" transform="scale(0.015625)"/>
      <path id="DejaVuSans-20" transform="scale(0.015625)"/>
      <path id="DejaVuSans-50" d="M 1259 4147 
L 1259 2394 
L 2053 2394 
Q 2494 2394 2734 2622 
Q 2975 2850 2975 3272 
Q 2975 3691 2734 3919 
Q 2494 4147 2053 4147 
L 1259 4147 
z
M 628 4666 
L 2053 4666 
Q 2838 4666 3239 4311 
Q 3641 3956 3641 3272 
Q 3641 2581 3239 2228 
Q 2838 1875 2053 1875 
L 1259 1875 
L 1259 0 
L 628 0 
L 628 4666 
z
" transform="scale(0.015625)"/>
      <path id="DejaVuSans-6f" d="M 1959 3097 
Q 1497 3097 1228 2736 
Q 959 2375 959 1747 
Q 959 1119 1226 758 
Q 1494 397 1959 397 
Q 2419 397 2687 759 
Q 2956 1122 2956 1747 
Q 2956 2369 2687 2733 
Q 2419 3097 1959 3097 
z
M 1959 3584 
Q 2709 3584 3137 3096 
Q 3566 2609 3566 1747 
Q 3566 888 3137 398 
Q 2709 -91 1959 -91 
Q 1206 -91 779 398 
Q 353 888 353 1747 
Q 353 2609 779 3096 
Q 1206 3584 1959 3584 
z
" transform="scale(0.015625)"/>
      <path id="DejaVuSans-77" d="M 269 3500 
L 844 3500 
L 1563 769 
L 2278 3500 
L 2956 3500 
L 3675 769 
L 4391 3500 
L 4966 3500 
L 4050 0 
L 3372 0 
L 2619 2869 
L 1863 0 
L 1184 0 
L 269 3500 
z
" transform="scale(0.015625)"/>
      <path id="DejaVuSans-53" d="M 3425 4513 
L 3425 3897 
Q 3066 4069 2747 4153 
Q 2428 4238 2131 4238 
Q 1616 4238 1336 4038 
Q 1056 3838 1056 3469 
Q 1056 3159 1242 3001 
Q 1428 2844 1947 2747 
L 2328 2669 
Q 3034 2534 3370 2195 
Q 3706 1856 3706 1288 
Q 3706 609 3251 259 
Q 2797 -91 1919 -91 
Q 1588 -91 1214 -16 
Q 841 59 441 206 
L 441 856 
Q 825 641 1194 531 
Q 1563 422 1919 422 
Q 2459 422 2753 634 
Q 3047 847 3047 1241 
Q 3047 1584 2836 1778 
Q 2625 1972 2144 2069 
L 1759 2144 
Q 1053 2284 737 2584 
Q 422 2884 422 3419 
Q 422 4038 858 4394 
Q 1294 4750 2059 4750 
Q 2388 4750 2728 4690 
Q 3069 4631 3425 4513 
z
" transform="scale(0.015625)"/>
      <path id="DejaVuSans-70" d="M 1159 525 
L 1159 -1331 
L 581 -1331 
L 581 3500 
L 1159 3500 
L 1159 2969 
Q 1341 3281 1617 3432 
Q 1894 3584 2278 3584 
Q 2916 3584 3314 3078 
Q 3713 2572 3713 1747 
Q 3713 922 3314 415 
Q 2916 -91 2278 -91 
Q 1894 -91 1617 61 
Q 1341 213 1159 525 
z
M 3116 1747 
Q 3116 2381 2855 2742 
Q 2594 3103 2138 3103 
Q 1681 3103 1420 2742 
Q 1159 2381 1159 1747 
Q 1159 1113 1420 752 
Q 1681 391 2138 391 
Q 2594 391 2855 752 
Q 3116 1113 3116 1747 
z
" transform="scale(0.015625)"/>
      <path id="DejaVuSans-63" d="M 3122 3366 
L 3122 2828 
Q 2878 2963 2633 3030 
Q 2388 3097 2138 3097 
Q 1578 3097 1268 2742 
Q 959 2388 959 1747 
Q 959 1106 1268 751 
Q 1578 397 2138 397 
Q 2388 397 2633 464 
Q 2878 531 3122 666 
L 3122 134 
Q 2881 22 2623 -34 
Q 2366 -91 2075 -91 
Q 1284 -91 818 406 
Q 353 903 353 1747 
Q 353 2603 823 3093 
Q 1294 3584 2113 3584 
Q 2378 3584 2631 3529 
Q 2884 3475 3122 3366 
z
" transform="scale(0.015625)"/>
      <path id="DejaVuSans-74" d="M 1172 4494 
L 1172 3500 
L 2356 3500 
L 2356 3053 
L 1172 3053 
L 1172 1153 
Q 1172 725 1289 603 
Q 1406 481 1766 481 
L 2356 481 
L 2356 0 
L 1766 0 
Q 1100 0 847 248 
Q 594 497 594 1153 
L 594 3053 
L 172 3053 
L 172 3500 
L 594 3500 
L 594 4494 
L 1172 4494 
z
" transform="scale(0.015625)"/>
      <path id="DejaVuSans-6d" d="M 3328 2828 
Q 3544 3216 3844 3400 
Q 4144 3584 4550 3584 
Q 5097 3584 5394 3201 
Q 5691 2819 5691 2113 
L 5691 0 
L 5113 0 
L 5113 2094 
Q 5113 2597 4934 2840 
Q 4756 3084 4391 3084 
Q 3944 3084 3684 2787 
Q 3425 2491 3425 1978 
L 3425 0 
L 2847 0 
L 2847 2094 
Q 2847 2600 2669 2842 
Q 2491 3084 2119 3084 
Q 1678 3084 1418 2786 
Q 1159 2488 1159 1978 
L 1159 0 
L 581 0 
L 581 3500 
L 1159 3500 
L 1159 2956 
Q 1356 3278 1631 3431 
Q 1906 3584 2284 3584 
Q 2666 3584 2933 3390 
Q 3200 3197 3328 2828 
z
" transform="scale(0.015625)"/>
      <path id="DejaVuSans-43" d="M 4122 4306 
L 4122 3641 
Q 3803 3938 3442 4084 
Q 3081 4231 2675 4231 
Q 1875 4231 1450 3742 
Q 1025 3253 1025 2328 
Q 1025 1406 1450 917 
Q 1875 428 2675 428 
Q 3081 428 3442 575 
Q 3803 722 4122 1019 
L 4122 359 
Q 3791 134 3420 21 
Q 3050 -91 2638 -91 
Q 1578 -91 968 557 
Q 359 1206 359 2328 
Q 359 3453 968 4101 
Q 1578 4750 2638 4750 
Q 3056 4750 3426 4639 
Q 3797 4528 4122 4306 
z
" transform="scale(0.015625)"/>
      <path id="DejaVuSans-69" d="M 603 3500 
L 1178 3500 
L 1178 0 
L 603 0 
L 603 3500 
z
M 603 4863 
L 1178 4863 
L 1178 4134 
L 603 4134 
L 603 4863 
z
" transform="scale(0.015625)"/>
      <path id="DejaVuSans-73" d="M 2834 3397 
L 2834 2853 
Q 2591 2978 2328 3040 
Q 2066 3103 1784 3103 
Q 1356 3103 1142 2972 
Q 928 2841 928 2578 
Q 928 2378 1081 2264 
Q 1234 2150 1697 2047 
L 1894 2003 
Q 2506 1872 2764 1633 
Q 3022 1394 3022 966 
Q 3022 478 2636 193 
Q 2250 -91 1575 -91 
Q 1294 -91 989 -36 
Q 684 19 347 128 
L 347 722 
Q 666 556 975 473 
Q 1284 391 1588 391 
Q 1994 391 2212 530 
Q 2431 669 2431 922 
Q 2431 1156 2273 1281 
Q 2116 1406 1581 1522 
L 1381 1569 
Q 847 1681 609 1914 
Q 372 2147 372 2553 
Q 372 3047 722 3315 
Q 1072 3584 1716 3584 
Q 2034 3584 2315 3537 
Q 2597 3491 2834 3397 
z
" transform="scale(0.015625)"/>
      <path id="DejaVuSans-28" d="M 1984 4856 
Q 1566 4138 1362 3434 
Q 1159 2731 1159 2009 
Q 1159 1288 1364 580 
Q 1569 -128 1984 -844 
L 1484 -844 
Q 1016 -109 783 600 
Q 550 1309 550 2009 
Q 550 2706 781 3412 
Q 1013 4119 1484 4856 
L 1984 4856 
z
" transform="scale(0.015625)"/>
      <path id="DejaVuSans-7a" d="M 353 3500 
L 3084 3500 
L 3084 2975 
L 922 459 
L 3084 459 
L 3084 0 
L 275 0 
L 275 525 
L 2438 3041 
L 353 3041 
L 353 3500 
z
" transform="scale(0.015625)"/>
      <path id="DejaVuSans-5f" d="M 3263 -1063 
L 3263 -1509 
L -63 -1509 
L -63 -1063 
L 3263 -1063 
z
" transform="scale(0.015625)"/>
      <path id="DejaVuSans-3d" d="M 678 2906 
L 4684 2906 
L 4684 2381 
L 678 2381 
L 678 2906 
z
M 678 1631 
L 4684 1631 
L 4684 1100 
L 678 1100 
L 678 1631 
z
" transform="scale(0.015625)"/>
      <path id="DejaVuSans-2e" d="M 684 794 
L 1344 794 
L 1344 0 
L 684 0 
L 684 794 
z
" transform="scale(0.015625)"/>
      <path id="DejaVuSans-35" d="M 691 4666 
L 3169 4666 
L 3169 4134 
L 1269 4134 
L 1269 2991 
Q 1406 3038 1543 3061 
Q 1681 3084 1819 3084 
Q 2600 3084 3056 2656 
Q 3513 2228 3513 1497 
Q 3513 744 3044 326 
Q 2575 -91 1722 -91 
Q 1428 -91 1123 -41 
Q 819 9 494 109 
L 494 744 
Q 775 591 1075 516 
Q 1375 441 1709 441 
Q 2250 441 2565 725 
Q 2881 1009 2881 1497 
Q 2881 1984 2565 2268 
Q 2250 2553 1709 2553 
Q 1456 2553 1204 2497 
Q 953 2441 691 2322 
L 691 4666 
z
" transform="scale(0.015625)"/>
      <path id="DejaVuSans-29" d="M 513 4856 
L 1013 4856 
Q 1481 4119 1714 3412 
Q 1947 2706 1947 2009 
Q 1947 1309 1714 600 
Q 1481 -109 1013 -844 
L 513 -844 
Q 928 -128 1133 580 
Q 1338 1288 1338 2009 
Q 1338 2731 1133 3434 
Q 928 4138 513 4856 
z
" transform="scale(0.015625)"/>
     </defs>
     <use xlink:href="#DejaVuSans-41"/>
     <use xlink:href="#DejaVuSans-6e" transform="translate(68.408203 0)"/>
     <use xlink:href="#DejaVuSans-67" transform="translate(131.787109 0)"/>
     <use xlink:href="#DejaVuSans-75" transform="translate(195.263672 0)"/>
     <use xlink:href="#DejaVuSans-6c" transform="translate(258.642578 0)"/>
     <use xlink:href="#DejaVuSans-61" transform="translate(286.425781 0)"/>
     <use xlink:href="#DejaVuSans-72" transform="translate(347.705078 0)"/>
     <use xlink:href="#DejaVuSans-20" transform="translate(388.818359 0)"/>
     <use xlink:href="#DejaVuSans-50" transform="translate(420.605469 0)"/>
     <use xlink:href="#DejaVuSans-6f" transform="translate(477.283203 0)"/>
     <use xlink:href="#DejaVuSans-77" transform="translate(538.464844 0)"/>
     <use xlink:href="#DejaVuSans-65" transform="translate(620.251953 0)"/>
     <use xlink:href="#DejaVuSans-72" transform="translate(681.775391 0)"/>
     <use xlink:href="#DejaVuSans-20" transform="translate(722.888672 0)"/>
     <use xlink:href="#DejaVuSans-53" transform="translate(754.675781 0)"/>
     <use xlink:href="#DejaVuSans-70" transform="translate(818.152344 0)"/>
     <use xlink:href="#DejaVuSans-65" transform="translate(881.628906 0)"/>
     <use xlink:href="#DejaVuSans-63" transform="translate(943.152344 0)"/>
     <use xlink:href="#DejaVuSans-74" transform="translate(998.132812 0)"/>
     <use xlink:href="#DejaVuSans-72" transform="translate(1037.341797 0)"/>
     <use xlink:href="#DejaVuSans-75" transform="translate(1078.455078 0)"/>
     <use xlink:href="#DejaVuSans-6d" transform="translate(1141.833984 0)"/>
     <use xlink:href="#DejaVuSans-20" transform="translate(1239.246094 0)"/>
     <use xlink:href="#DejaVuSans-43" transform="translate(1271.033203 0)"/>
     <use xlink:href="#DejaVuSans-6f" transform="translate(1340.857422 0)"/>
     <use xlink:href="#DejaVuSans-6d" transform="translate(1402.039062 0)"/>
     <use xlink:href="#DejaVuSans-70" transform="translate(1499.451172 0)"/>
     <use xlink:href="#DejaVuSans-61" transform="translate(1562.927734 0)"/>
     <use xlink:href="#DejaVuSans-72" transform="translate(1624.207031 0)"/>
     <use xlink:href="#DejaVuSans-69" transform="translate(1665.320312 0)"/>
     <use xlink:href="#DejaVuSans-73" transform="translate(1693.103516 0)"/>
     <use xlink:href="#DejaVuSans-6f" transform="translate(1745.203125 0)"/>
     <use xlink:href="#DejaVuSans-6e" transform="translate(1806.384766 0)"/>
     <use xlink:href="#DejaVuSans-20" transform="translate(1869.763672 0)"/>
     <use xlink:href="#DejaVuSans-28" transform="translate(1901.550781 0)"/>
     <use xlink:href="#DejaVuSans-7a" transform="translate(1940.564453 0)"/>
     <use xlink:href="#DejaVuSans-5f" transform="translate(1993.054688 0)"/>
     <use xlink:href="#DejaVuSans-73" transform="translate(2043.054688 0)"/>
     <use xlink:href="#DejaVuSans-6f" transform="translate(2095.154297 0)"/>
     <use xlink:href="#DejaVuSans-75" transform="translate(2156.335938 0)"/>
     <use xlink:href="#DejaVuSans-72" transform="translate(2219.714844 0)"/>
     <use xlink:href="#DejaVuSans-63" transform="translate(2258.578125 0)"/>
     <use xlink:href="#DejaVuSans-65" transform="translate(2313.558594 0)"/>
     <use xlink:href="#DejaVuSans-20" transform="translate(2375.082031 0)"/>
     <use xlink:href="#DejaVuSans-3d" transform="translate(2406.869141 0)"/>
     <use xlink:href="#DejaVuSans-20" transform="translate(2490.658203 0)"/>
     <use xlink:href="#DejaVuSans-30" transform="translate(2522.445312 0)"/>
     <use xlink:href="#DejaVuSans-2e" transform="translate(2586.068359 0)"/>
     <use xlink:href="#DejaVuSans-35" transform="translate(2617.855469 0)"/>
     <use xlink:href="#DejaVuSans-29" transform="translate(2681.478516 0)"/>
    </g>
   </g>
   <g id="legend_1">
    <g id="patch_7">
     <path d="M 706.166696 87.79875 
L 840.497321 87.79875 
Q 842.897321 87.79875 842.897321 85.39875 
L 842.897321 33.7575 
Q 842.897321 31.3575 840.497321 31.3575 
L 706.166696 31.3575 
Q 703.766696 31.3575 703.766696 33.7575 
L 703.766696 85.39875 
Q 703.766696 87.79875 706.166696 87.79875 
z
" style="fill: #ffffff; opacity: 0.8; stroke: #cccccc; stroke-linejoin: miter"/>
    </g>
    <g id="line2d_69">
     <path d="M 708.566696 41.075625 
L 720.566696 41.075625 
L 732.566696 41.075625 
" style="fill: none; stroke: #0000ff; stroke-opacity: 0.8; stroke-width: 2.5; stroke-linecap: square"/>
    </g>
    <g id="text_7">
     <!-- JaxPM Born -->
     <g transform="translate(742.166696 45.275625) scale(0.12 -0.12)">
      <defs>
       <path id="DejaVuSans-4a" d="M 628 4666 
L 1259 4666 
L 1259 325 
Q 1259 -519 939 -900 
Q 619 -1281 -91 -1281 
L -331 -1281 
L -331 -750 
L -134 -750 
Q 284 -750 456 -515 
Q 628 -281 628 325 
L 628 4666 
z
" transform="scale(0.015625)"/>
       <path id="DejaVuSans-78" d="M 3513 3500 
L 2247 1797 
L 3578 0 
L 2900 0 
L 1881 1375 
L 863 0 
L 184 0 
L 1544 1831 
L 300 3500 
L 978 3500 
L 1906 2253 
L 2834 3500 
L 3513 3500 
z
" transform="scale(0.015625)"/>
       <path id="DejaVuSans-4d" d="M 628 4666 
L 1569 4666 
L 2759 1491 
L 3956 4666 
L 4897 4666 
L 4897 0 
L 4281 0 
L 4281 4097 
L 3078 897 
L 2444 897 
L 1241 4097 
L 1241 0 
L 628 0 
L 628 4666 
z
" transform="scale(0.015625)"/>
       <path id="DejaVuSans-42" d="M 1259 2228 
L 1259 519 
L 2272 519 
Q 2781 519 3026 730 
Q 3272 941 3272 1375 
Q 3272 1813 3026 2020 
Q 2781 2228 2272 2228 
L 1259 2228 
z
M 1259 4147 
L 1259 2741 
L 2194 2741 
Q 2656 2741 2882 2914 
Q 3109 3088 3109 3444 
Q 3109 3797 2882 3972 
Q 2656 4147 2194 4147 
L 1259 4147 
z
M 628 4666 
L 2241 4666 
Q 2963 4666 3353 4366 
Q 3744 4066 3744 3513 
Q 3744 3084 3544 2831 
Q 3344 2578 2956 2516 
Q 3422 2416 3680 2098 
Q 3938 1781 3938 1306 
Q 3938 681 3513 340 
Q 3088 0 2303 0 
L 628 0 
L 628 4666 
z
" transform="scale(0.015625)"/>
      </defs>
      <use xlink:href="#DejaVuSans-4a"/>
      <use xlink:href="#DejaVuSans-61" transform="translate(29.492188 0)"/>
      <use xlink:href="#DejaVuSans-78" transform="translate(90.771484 0)"/>
      <use xlink:href="#DejaVuSans-50" transform="translate(149.951172 0)"/>
      <use xlink:href="#DejaVuSans-4d" transform="translate(210.253906 0)"/>
      <use xlink:href="#DejaVuSans-20" transform="translate(296.533203 0)"/>
      <use xlink:href="#DejaVuSans-42" transform="translate(328.320312 0)"/>
      <use xlink:href="#DejaVuSans-6f" transform="translate(396.923828 0)"/>
      <use xlink:href="#DejaVuSans-72" transform="translate(458.105469 0)"/>
      <use xlink:href="#DejaVuSans-6e" transform="translate(497.46875 0)"/>
     </g>
    </g>
    <g id="line2d_70">
     <path d="M 708.566696 58.689375 
L 720.566696 58.689375 
L 732.566696 58.689375 
" style="fill: none; stroke: #ff0000; stroke-opacity: 0.8; stroke-width: 2.5; stroke-linecap: square"/>
    </g>
    <g id="text_8">
     <!-- Glass Triangular -->
     <g transform="translate(742.166696 62.889375) scale(0.12 -0.12)">
      <defs>
       <path id="DejaVuSans-47" d="M 3809 666 
L 3809 1919 
L 2778 1919 
L 2778 2438 
L 4434 2438 
L 4434 434 
Q 4069 175 3628 42 
Q 3188 -91 2688 -91 
Q 1594 -91 976 548 
Q 359 1188 359 2328 
Q 359 3472 976 4111 
Q 1594 4750 2688 4750 
Q 3144 4750 3555 4637 
Q 3966 4525 4313 4306 
L 4313 3634 
Q 3963 3931 3569 4081 
Q 3175 4231 2741 4231 
Q 1884 4231 1454 3753 
Q 1025 3275 1025 2328 
Q 1025 1384 1454 906 
Q 1884 428 2741 428 
Q 3075 428 3337 486 
Q 3600 544 3809 666 
z
" transform="scale(0.015625)"/>
       <path id="DejaVuSans-54" d="M -19 4666 
L 3928 4666 
L 3928 4134 
L 2272 4134 
L 2272 0 
L 1638 0 
L 1638 4134 
L -19 4134 
L -19 4666 
z
" transform="scale(0.015625)"/>
      </defs>
      <use xlink:href="#DejaVuSans-47"/>
      <use xlink:href="#DejaVuSans-6c" transform="translate(77.490234 0)"/>
      <use xlink:href="#DejaVuSans-61" transform="translate(105.273438 0)"/>
      <use xlink:href="#DejaVuSans-73" transform="translate(166.552734 0)"/>
      <use xlink:href="#DejaVuSans-73" transform="translate(218.652344 0)"/>
      <use xlink:href="#DejaVuSans-20" transform="translate(270.751953 0)"/>
      <use xlink:href="#DejaVuSans-54" transform="translate(302.539062 0)"/>
      <use xlink:href="#DejaVuSans-72" transform="translate(348.873047 0)"/>
      <use xlink:href="#DejaVuSans-69" transform="translate(389.986328 0)"/>
      <use xlink:href="#DejaVuSans-61" transform="translate(417.769531 0)"/>
      <use xlink:href="#DejaVuSans-6e" transform="translate(479.048828 0)"/>
      <use xlink:href="#DejaVuSans-67" transform="translate(542.427734 0)"/>
      <use xlink:href="#DejaVuSans-75" transform="translate(605.904297 0)"/>
      <use xlink:href="#DejaVuSans-6c" transform="translate(669.283203 0)"/>
      <use xlink:href="#DejaVuSans-61" transform="translate(697.066406 0)"/>
      <use xlink:href="#DejaVuSans-72" transform="translate(758.345703 0)"/>
     </g>
    </g>
    <g id="line2d_71">
     <path d="M 708.566696 76.303125 
L 720.566696 76.303125 
L 732.566696 76.303125 
" style="fill: none; stroke-dasharray: 11.1,4.8; stroke-dashoffset: 0; stroke: #000000; stroke-opacity: 0.9; stroke-width: 3"/>
    </g>
    <g id="text_9">
     <!-- Theory -->
     <g transform="translate(742.166696 80.503125) scale(0.12 -0.12)">
      <defs>
       <path id="DejaVuSans-68" d="M 3513 2113 
L 3513 0 
L 2938 0 
L 2938 2094 
Q 2938 2591 2744 2837 
Q 2550 3084 2163 3084 
Q 1697 3084 1428 2787 
Q 1159 2491 1159 1978 
L 1159 0 
L 581 0 
L 581 4863 
L 1159 4863 
L 1159 2956 
Q 1366 3272 1645 3428 
Q 1925 3584 2291 3584 
Q 2894 3584 3203 3211 
Q 3513 2838 3513 2113 
z
" transform="scale(0.015625)"/>
       <path id="DejaVuSans-79" d="M 2059 -325 
Q 1816 -950 1584 -1140 
Q 1353 -1331 966 -1331 
L 506 -1331 
L 506 -850 
L 844 -850 
Q 1081 -850 1212 -737 
Q 1344 -625 1503 -206 
L 1606 56 
L 191 3500 
L 800 3500 
L 1894 763 
L 2988 3500 
L 3597 3500 
L 2059 -325 
z
" transform="scale(0.015625)"/>
      </defs>
      <use xlink:href="#DejaVuSans-54"/>
      <use xlink:href="#DejaVuSans-68" transform="translate(61.083984 0)"/>
      <use xlink:href="#DejaVuSans-65" transform="translate(124.462891 0)"/>
      <use xlink:href="#DejaVuSans-6f" transform="translate(185.986328 0)"/>
      <use xlink:href="#DejaVuSans-72" transform="translate(247.167969 0)"/>
      <use xlink:href="#DejaVuSans-79" transform="translate(288.28125 0)"/>
     </g>
    </g>
   </g>
  </g>
  <g id="axes_2">
   <g id="patch_8">
    <path d="M 55.249375 668.1655 
L 848.897321 668.1655 
L 848.897321 355.8915 
L 55.249375 355.8915 
z
" style="fill: none"/>
   </g>
   <g id="FillBetweenPolyCollection_1">
    <defs>
     <path id="mbafd432a12" d="M 91.324282 -130.648643 
L 91.324282 -66.919255 
L 161.798747 -66.919255 
L 211.801176 -66.919255 
L 250.586073 -66.919255 
L 282.275642 -66.919255 
L 309.06879 -66.919255 
L 332.278071 -66.919255 
L 352.750107 -66.919255 
L 371.062968 -66.919255 
L 387.628965 -66.919255 
L 402.752536 -66.919255 
L 416.664872 -66.919255 
L 429.545684 -66.919255 
L 441.537433 -66.919255 
L 452.754965 -66.919255 
L 463.292216 -66.919255 
L 473.227001 -66.919255 
L 482.624502 -66.919255 
L 491.539862 -66.919255 
L 500.02015 -66.919255 
L 508.10586 -66.919255 
L 515.832083 -66.919255 
L 523.22943 -66.919255 
L 530.324759 -66.919255 
L 537.141767 -66.919255 
L 543.701467 -66.919255 
L 550.022579 -66.919255 
L 556.121851 -66.919255 
L 562.014327 -66.919255 
L 567.713573 -66.919255 
L 573.231859 -66.919255 
L 578.580325 -66.919255 
L 583.769111 -66.919255 
L 588.807476 -66.919255 
L 593.703896 -66.919255 
L 598.46615 -66.919255 
L 603.101396 -66.919255 
L 607.616232 -66.919255 
L 612.016756 -66.919255 
L 616.308614 -66.919255 
L 620.497044 -66.919255 
L 624.586913 -66.919255 
L 628.582754 -66.919255 
L 632.488793 -66.919255 
L 636.308978 -66.919255 
L 640.047002 -66.919255 
L 643.706325 -66.919255 
L 647.290192 -66.919255 
L 650.801654 -66.919255 
L 654.243576 -66.919255 
L 657.618661 -66.919255 
L 660.929455 -66.919255 
L 664.178361 -66.919255 
L 667.367651 -66.919255 
L 670.499473 -66.919255 
L 673.575862 -66.919255 
L 676.598745 -66.919255 
L 679.569953 -66.919255 
L 682.491222 -66.919255 
L 685.364203 -66.919255 
L 688.190468 -66.919255 
L 690.97151 -66.919255 
L 693.708754 -66.919255 
L 696.403558 -66.919255 
L 699.057219 -66.919255 
L 701.670974 -66.919255 
L 704.246005 -66.919255 
L 706.783443 -66.919255 
L 709.28437 -66.919255 
L 711.749822 -66.919255 
L 714.18079 -66.919255 
L 716.578227 -66.919255 
L 718.943045 -66.919255 
L 721.276119 -66.919255 
L 723.578291 -66.919255 
L 725.850368 -66.919255 
L 728.093127 -66.919255 
L 730.307315 -66.919255 
L 732.493651 -66.919255 
L 734.652827 -66.919255 
L 736.785509 -66.919255 
L 738.89234 -66.919255 
L 740.973939 -66.919255 
L 743.030902 -66.919255 
L 745.063808 -66.919255 
L 747.073211 -66.919255 
L 749.059648 -66.919255 
L 751.02364 -66.919255 
L 752.965687 -66.919255 
L 754.886275 -66.919255 
L 756.785872 -66.919255 
L 758.664933 -66.919255 
L 760.523896 -66.919255 
L 762.363188 -66.919255 
L 764.183219 -66.919255 
L 765.98439 -66.919255 
L 767.767087 -66.919255 
L 769.531685 -66.919255 
L 771.278548 -66.919255 
L 773.008029 -66.919255 
L 774.720471 -66.919255 
L 776.416205 -66.919255 
L 778.095556 -66.919255 
L 779.758836 -66.919255 
L 781.40635 -66.919255 
L 783.038394 -66.919255 
L 784.655256 -66.919255 
L 786.257216 -66.919255 
L 787.844546 -66.919255 
L 789.41751 -66.919255 
L 790.976368 -66.919255 
L 792.521368 -66.919255 
L 794.052756 -66.919255 
L 795.570769 -66.919255 
L 797.07564 -66.919255 
L 798.567592 -66.919255 
L 800.046847 -66.919255 
L 801.513619 -66.919255 
L 802.968116 -66.919255 
L 804.410543 -66.919255 
L 805.841098 -66.919255 
L 807.259974 -66.919255 
L 808.667362 -66.919255 
L 810.063445 -66.919255 
L 811.448404 -66.919255 
L 812.822414 -66.919255 
L 812.822414 -130.648643 
L 812.822414 -130.648643 
L 811.448404 -130.648643 
L 810.063445 -130.648643 
L 808.667362 -130.648643 
L 807.259974 -130.648643 
L 805.841098 -130.648643 
L 804.410543 -130.648643 
L 802.968116 -130.648643 
L 801.513619 -130.648643 
L 800.046847 -130.648643 
L 798.567592 -130.648643 
L 797.07564 -130.648643 
L 795.570769 -130.648643 
L 794.052756 -130.648643 
L 792.521368 -130.648643 
L 790.976368 -130.648643 
L 789.41751 -130.648643 
L 787.844546 -130.648643 
L 786.257216 -130.648643 
L 784.655256 -130.648643 
L 783.038394 -130.648643 
L 781.40635 -130.648643 
L 779.758836 -130.648643 
L 778.095556 -130.648643 
L 776.416205 -130.648643 
L 774.720471 -130.648643 
L 773.008029 -130.648643 
L 771.278548 -130.648643 
L 769.531685 -130.648643 
L 767.767087 -130.648643 
L 765.98439 -130.648643 
L 764.183219 -130.648643 
L 762.363188 -130.648643 
L 760.523896 -130.648643 
L 758.664933 -130.648643 
L 756.785872 -130.648643 
L 754.886275 -130.648643 
L 752.965687 -130.648643 
L 751.02364 -130.648643 
L 749.059648 -130.648643 
L 747.073211 -130.648643 
L 745.063808 -130.648643 
L 743.030902 -130.648643 
L 740.973939 -130.648643 
L 738.89234 -130.648643 
L 736.785509 -130.648643 
L 734.652827 -130.648643 
L 732.493651 -130.648643 
L 730.307315 -130.648643 
L 728.093127 -130.648643 
L 725.850368 -130.648643 
L 723.578291 -130.648643 
L 721.276119 -130.648643 
L 718.943045 -130.648643 
L 716.578227 -130.648643 
L 714.18079 -130.648643 
L 711.749822 -130.648643 
L 709.28437 -130.648643 
L 706.783443 -130.648643 
L 704.246005 -130.648643 
L 701.670974 -130.648643 
L 699.057219 -130.648643 
L 696.403558 -130.648643 
L 693.708754 -130.648643 
L 690.97151 -130.648643 
L 688.190468 -130.648643 
L 685.364203 -130.648643 
L 682.491222 -130.648643 
L 679.569953 -130.648643 
L 676.598745 -130.648643 
L 673.575862 -130.648643 
L 670.499473 -130.648643 
L 667.367651 -130.648643 
L 664.178361 -130.648643 
L 660.929455 -130.648643 
L 657.618661 -130.648643 
L 654.243576 -130.648643 
L 650.801654 -130.648643 
L 647.290192 -130.648643 
L 643.706325 -130.648643 
L 640.047002 -130.648643 
L 636.308978 -130.648643 
L 632.488793 -130.648643 
L 628.582754 -130.648643 
L 624.586913 -130.648643 
L 620.497044 -130.648643 
L 616.308614 -130.648643 
L 612.016756 -130.648643 
L 607.616232 -130.648643 
L 603.101396 -130.648643 
L 598.46615 -130.648643 
L 593.703896 -130.648643 
L 588.807476 -130.648643 
L 583.769111 -130.648643 
L 578.580325 -130.648643 
L 573.231859 -130.648643 
L 567.713573 -130.648643 
L 562.014327 -130.648643 
L 556.121851 -130.648643 
L 550.022579 -130.648643 
L 543.701467 -130.648643 
L 537.141767 -130.648643 
L 530.324759 -130.648643 
L 523.22943 -130.648643 
L 515.832083 -130.648643 
L 508.10586 -130.648643 
L 500.02015 -130.648643 
L 491.539862 -130.648643 
L 482.624502 -130.648643 
L 473.227001 -130.648643 
L 463.292216 -130.648643 
L 452.754965 -130.648643 
L 441.537433 -130.648643 
L 429.545684 -130.648643 
L 416.664872 -130.648643 
L 402.752536 -130.648643 
L 387.628965 -130.648643 
L 371.062968 -130.648643 
L 352.750107 -130.648643 
L 332.278071 -130.648643 
L 309.06879 -130.648643 
L 282.275642 -130.648643 
L 250.586073 -130.648643 
L 211.801176 -130.648643 
L 161.798747 -130.648643 
L 91.324282 -130.648643 
z
" style="stroke: #808080; stroke-opacity: 0.1"/>
    </defs>
    <g clip-path="url(#p522df00347)">
     <use xlink:href="#mbafd432a12" x="0" y="709.593" style="fill: #808080; fill-opacity: 0.1; stroke: #808080; stroke-opacity: 0.1"/>
    </g>
   </g>
   <g id="matplotlib.axis_3">
    <g id="xtick_19">
     <g id="line2d_72">
      <path d="M 371.062968 668.1655 
L 371.062968 355.8915 
" clip-path="url(#p522df00347)" style="fill: none; stroke: #b0b0b0; stroke-opacity: 0.3; stroke-width: 0.8; stroke-linecap: square"/>
     </g>
     <g id="line2d_73">
      <g>
       <use xlink:href="#m26018d97e4" x="371.062968" y="668.1655" style="stroke: #000000; stroke-width: 0.8"/>
      </g>
     </g>
     <g id="text_10">
      <!-- $\mathdefault{10^{1}}$ -->
      <g transform="translate(362.262968 682.763937) scale(0.1 -0.1)">
       <use xlink:href="#DejaVuSans-31" transform="translate(0 0.684375)"/>
       <use xlink:href="#DejaVuSans-30" transform="translate(63.623047 0.684375)"/>
       <use xlink:href="#DejaVuSans-31" transform="translate(128.203125 38.965625) scale(0.7)"/>
      </g>
     </g>
    </g>
    <g id="xtick_20">
     <g id="line2d_74">
      <path d="M 771.278548 668.1655 
L 771.278548 355.8915 
" clip-path="url(#p522df00347)" style="fill: none; stroke: #b0b0b0; stroke-opacity: 0.3; stroke-width: 0.8; stroke-linecap: square"/>
     </g>
     <g id="line2d_75">
      <g>
       <use xlink:href="#m26018d97e4" x="771.278548" y="668.1655" style="stroke: #000000; stroke-width: 0.8"/>
      </g>
     </g>
     <g id="text_11">
      <!-- $\mathdefault{10^{2}}$ -->
      <g transform="translate(762.478548 682.763937) scale(0.1 -0.1)">
       <defs>
        <path id="DejaVuSans-32" d="M 1228 531 
L 3431 531 
L 3431 0 
L 469 0 
L 469 531 
Q 828 903 1448 1529 
Q 2069 2156 2228 2338 
Q 2531 2678 2651 2914 
Q 2772 3150 2772 3378 
Q 2772 3750 2511 3984 
Q 2250 4219 1831 4219 
Q 1534 4219 1204 4116 
Q 875 4013 500 3803 
L 500 4441 
Q 881 4594 1212 4672 
Q 1544 4750 1819 4750 
Q 2544 4750 2975 4387 
Q 3406 4025 3406 3419 
Q 3406 3131 3298 2873 
Q 3191 2616 2906 2266 
Q 2828 2175 2409 1742 
Q 1991 1309 1228 531 
z
" transform="scale(0.015625)"/>
       </defs>
       <use xlink:href="#DejaVuSans-31" transform="translate(0 0.765625)"/>
       <use xlink:href="#DejaVuSans-30" transform="translate(63.623047 0.765625)"/>
       <use xlink:href="#DejaVuSans-32" transform="translate(128.203125 39.046875) scale(0.7)"/>
      </g>
     </g>
    </g>
    <g id="xtick_21">
     <g id="line2d_76">
      <g>
       <use xlink:href="#ma8f48db349" x="91.324282" y="668.1655" style="stroke: #000000; stroke-width: 0.6"/>
      </g>
     </g>
    </g>
    <g id="xtick_22">
     <g id="line2d_77">
      <g>
       <use xlink:href="#ma8f48db349" x="161.798747" y="668.1655" style="stroke: #000000; stroke-width: 0.6"/>
      </g>
     </g>
    </g>
    <g id="xtick_23">
     <g id="line2d_78">
      <g>
       <use xlink:href="#ma8f48db349" x="211.801176" y="668.1655" style="stroke: #000000; stroke-width: 0.6"/>
      </g>
     </g>
    </g>
    <g id="xtick_24">
     <g id="line2d_79">
      <g>
       <use xlink:href="#ma8f48db349" x="250.586073" y="668.1655" style="stroke: #000000; stroke-width: 0.6"/>
      </g>
     </g>
    </g>
    <g id="xtick_25">
     <g id="line2d_80">
      <g>
       <use xlink:href="#ma8f48db349" x="282.275642" y="668.1655" style="stroke: #000000; stroke-width: 0.6"/>
      </g>
     </g>
    </g>
    <g id="xtick_26">
     <g id="line2d_81">
      <g>
       <use xlink:href="#ma8f48db349" x="309.06879" y="668.1655" style="stroke: #000000; stroke-width: 0.6"/>
      </g>
     </g>
    </g>
    <g id="xtick_27">
     <g id="line2d_82">
      <g>
       <use xlink:href="#ma8f48db349" x="332.278071" y="668.1655" style="stroke: #000000; stroke-width: 0.6"/>
      </g>
     </g>
    </g>
    <g id="xtick_28">
     <g id="line2d_83">
      <g>
       <use xlink:href="#ma8f48db349" x="352.750107" y="668.1655" style="stroke: #000000; stroke-width: 0.6"/>
      </g>
     </g>
    </g>
    <g id="xtick_29">
     <g id="line2d_84">
      <g>
       <use xlink:href="#ma8f48db349" x="491.539862" y="668.1655" style="stroke: #000000; stroke-width: 0.6"/>
      </g>
     </g>
    </g>
    <g id="xtick_30">
     <g id="line2d_85">
      <g>
       <use xlink:href="#ma8f48db349" x="562.014327" y="668.1655" style="stroke: #000000; stroke-width: 0.6"/>
      </g>
     </g>
    </g>
    <g id="xtick_31">
     <g id="line2d_86">
      <g>
       <use xlink:href="#ma8f48db349" x="612.016756" y="668.1655" style="stroke: #000000; stroke-width: 0.6"/>
      </g>
     </g>
    </g>
    <g id="xtick_32">
     <g id="line2d_87">
      <g>
       <use xlink:href="#ma8f48db349" x="650.801654" y="668.1655" style="stroke: #000000; stroke-width: 0.6"/>
      </g>
     </g>
    </g>
    <g id="xtick_33">
     <g id="line2d_88">
      <g>
       <use xlink:href="#ma8f48db349" x="682.491222" y="668.1655" style="stroke: #000000; stroke-width: 0.6"/>
      </g>
     </g>
    </g>
    <g id="xtick_34">
     <g id="line2d_89">
      <g>
       <use xlink:href="#ma8f48db349" x="709.28437" y="668.1655" style="stroke: #000000; stroke-width: 0.6"/>
      </g>
     </g>
    </g>
    <g id="xtick_35">
     <g id="line2d_90">
      <g>
       <use xlink:href="#ma8f48db349" x="732.493651" y="668.1655" style="stroke: #000000; stroke-width: 0.6"/>
      </g>
     </g>
    </g>
    <g id="xtick_36">
     <g id="line2d_91">
      <g>
       <use xlink:href="#ma8f48db349" x="752.965687" y="668.1655" style="stroke: #000000; stroke-width: 0.6"/>
      </g>
     </g>
    </g>
    <g id="text_12">
     <!-- $\ell$ -->
     <g transform="translate(449.133348 699.481437) scale(0.14 -0.14)">
      <defs>
       <path id="DejaVuSans-Oblique-2113" d="M 950 838 
Q 1078 213 1350 213 
Q 1531 213 1766 572 
L 2181 572 
Q 1994 253 1775 88 
Q 1538 -91 1319 -91 
Q 831 -91 634 344 
L 400 0 
L -88 0 
Q 250 459 500 888 
Q 469 1131 469 1397 
Q 469 1872 566 2347 
Q 931 4131 1256 4497 
Q 1481 4750 1866 4750 
Q 2256 4750 2256 4209 
Q 2253 3966 2197 3675 
Q 1972 2484 950 838 
z
M 947 1656 
Q 1531 2744 1709 3613 
Q 1803 4072 1803 4191 
Q 1803 4406 1725 4406 
Q 1384 4134 1081 2516 
Q 997 2063 947 1656 
z
" transform="scale(0.015625)"/>
      </defs>
      <use xlink:href="#DejaVuSans-Oblique-2113" transform="translate(0 0.78125)"/>
     </g>
    </g>
   </g>
   <g id="matplotlib.axis_4">
    <g id="ytick_42">
     <g id="line2d_92">
      <path d="M 55.249375 610.809051 
L 848.897321 610.809051 
" clip-path="url(#p522df00347)" style="fill: none; stroke: #b0b0b0; stroke-opacity: 0.3; stroke-width: 0.8; stroke-linecap: square"/>
     </g>
     <g id="line2d_93">
      <g>
       <use xlink:href="#m33123830f2" x="55.249375" y="610.809051" style="stroke: #000000; stroke-width: 0.8"/>
      </g>
     </g>
     <g id="text_13">
      <!-- 1 -->
      <g transform="translate(41.886875 614.60827) scale(0.1 -0.1)">
       <use xlink:href="#DejaVuSans-31"/>
      </g>
     </g>
    </g>
    <g id="ytick_43">
     <g id="line2d_94">
      <path d="M 55.249375 547.079663 
L 848.897321 547.079663 
" clip-path="url(#p522df00347)" style="fill: none; stroke: #b0b0b0; stroke-opacity: 0.3; stroke-width: 0.8; stroke-linecap: square"/>
     </g>
     <g id="line2d_95">
      <g>
       <use xlink:href="#m33123830f2" x="55.249375" y="547.079663" style="stroke: #000000; stroke-width: 0.8"/>
      </g>
     </g>
     <g id="text_14">
      <!-- 2 -->
      <g transform="translate(41.886875 550.878882) scale(0.1 -0.1)">
       <use xlink:href="#DejaVuSans-32"/>
      </g>
     </g>
    </g>
    <g id="ytick_44">
     <g id="line2d_96">
      <path d="M 55.249375 483.350276 
L 848.897321 483.350276 
" clip-path="url(#p522df00347)" style="fill: none; stroke: #b0b0b0; stroke-opacity: 0.3; stroke-width: 0.8; stroke-linecap: square"/>
     </g>
     <g id="line2d_97">
      <g>
       <use xlink:href="#m33123830f2" x="55.249375" y="483.350276" style="stroke: #000000; stroke-width: 0.8"/>
      </g>
     </g>
     <g id="text_15">
      <!-- 3 -->
      <g transform="translate(41.886875 487.149494) scale(0.1 -0.1)">
       <defs>
        <path id="DejaVuSans-33" d="M 2597 2516 
Q 3050 2419 3304 2112 
Q 3559 1806 3559 1356 
Q 3559 666 3084 287 
Q 2609 -91 1734 -91 
Q 1441 -91 1130 -33 
Q 819 25 488 141 
L 488 750 
Q 750 597 1062 519 
Q 1375 441 1716 441 
Q 2309 441 2620 675 
Q 2931 909 2931 1356 
Q 2931 1769 2642 2001 
Q 2353 2234 1838 2234 
L 1294 2234 
L 1294 2753 
L 1863 2753 
Q 2328 2753 2575 2939 
Q 2822 3125 2822 3475 
Q 2822 3834 2567 4026 
Q 2313 4219 1838 4219 
Q 1578 4219 1281 4162 
Q 984 4106 628 3988 
L 628 4550 
Q 988 4650 1302 4700 
Q 1616 4750 1894 4750 
Q 2613 4750 3031 4423 
Q 3450 4097 3450 3541 
Q 3450 3153 3228 2886 
Q 3006 2619 2597 2516 
z
" transform="scale(0.015625)"/>
       </defs>
       <use xlink:href="#DejaVuSans-33"/>
      </g>
     </g>
    </g>
    <g id="ytick_45">
     <g id="line2d_98">
      <path d="M 55.249375 419.620888 
L 848.897321 419.620888 
" clip-path="url(#p522df00347)" style="fill: none; stroke: #b0b0b0; stroke-opacity: 0.3; stroke-width: 0.8; stroke-linecap: square"/>
     </g>
     <g id="line2d_99">
      <g>
       <use xlink:href="#m33123830f2" x="55.249375" y="419.620888" style="stroke: #000000; stroke-width: 0.8"/>
      </g>
     </g>
     <g id="text_16">
      <!-- 4 -->
      <g transform="translate(41.886875 423.420107) scale(0.1 -0.1)">
       <defs>
        <path id="DejaVuSans-34" d="M 2419 4116 
L 825 1625 
L 2419 1625 
L 2419 4116 
z
M 2253 4666 
L 3047 4666 
L 3047 1625 
L 3713 1625 
L 3713 1100 
L 3047 1100 
L 3047 0 
L 2419 0 
L 2419 1100 
L 313 1100 
L 313 1709 
L 2253 4666 
z
" transform="scale(0.015625)"/>
       </defs>
       <use xlink:href="#DejaVuSans-34"/>
      </g>
     </g>
    </g>
    <g id="ytick_46">
     <g id="line2d_100">
      <path d="M 55.249375 355.8915 
L 848.897321 355.8915 
" clip-path="url(#p522df00347)" style="fill: none; stroke: #b0b0b0; stroke-opacity: 0.3; stroke-width: 0.8; stroke-linecap: square"/>
     </g>
     <g id="line2d_101">
      <g>
       <use xlink:href="#m33123830f2" x="55.249375" y="355.8915" style="stroke: #000000; stroke-width: 0.8"/>
      </g>
     </g>
     <g id="text_17">
      <!-- 5 -->
      <g transform="translate(41.886875 359.690719) scale(0.1 -0.1)">
       <use xlink:href="#DejaVuSans-35"/>
      </g>
     </g>
    </g>
    <g id="text_18">
     <!-- Ratio -->
     <g transform="translate(34.975313 529.996625) rotate(-90) scale(0.14 -0.14)">
      <defs>
       <path id="DejaVuSans-52" d="M 2841 2188 
Q 3044 2119 3236 1894 
Q 3428 1669 3622 1275 
L 4263 0 
L 3584 0 
L 2988 1197 
Q 2756 1666 2539 1819 
Q 2322 1972 1947 1972 
L 1259 1972 
L 1259 0 
L 628 0 
L 628 4666 
L 2053 4666 
Q 2853 4666 3247 4331 
Q 3641 3997 3641 3322 
Q 3641 2881 3436 2590 
Q 3231 2300 2841 2188 
z
M 1259 4147 
L 1259 2491 
L 2053 2491 
Q 2509 2491 2742 2702 
Q 2975 2913 2975 3322 
Q 2975 3731 2742 3939 
Q 2509 4147 2053 4147 
L 1259 4147 
z
" transform="scale(0.015625)"/>
      </defs>
      <use xlink:href="#DejaVuSans-52"/>
      <use xlink:href="#DejaVuSans-61" transform="translate(67.232422 0)"/>
      <use xlink:href="#DejaVuSans-74" transform="translate(128.511719 0)"/>
      <use xlink:href="#DejaVuSans-69" transform="translate(167.720703 0)"/>
      <use xlink:href="#DejaVuSans-6f" transform="translate(195.503906 0)"/>
     </g>
    </g>
   </g>
   <g id="line2d_102">
    <path d="M 91.324282 603.728008 
L 161.798747 603.728008 
L 211.801176 603.728008 
L 250.586073 603.728008 
L 282.275642 603.728008 
L 309.06879 603.728008 
L 332.278071 603.728008 
L 352.750107 603.728008 
L 371.062968 603.728008 
L 387.628965 603.728008 
L 402.752536 603.728008 
L 416.664872 603.728008 
L 429.545684 603.728008 
L 441.537433 603.728008 
L 452.754965 603.728008 
L 463.292216 603.728008 
L 473.227001 603.728008 
L 482.624502 603.728008 
L 491.539862 603.728008 
L 500.02015 603.728008 
L 508.10586 603.728008 
L 515.832083 603.728008 
L 523.22943 603.728008 
L 530.324759 603.728008 
L 537.141767 603.728008 
L 543.701467 603.728008 
L 550.022579 603.728008 
L 556.121851 603.728008 
L 562.014327 603.728008 
L 567.713573 603.728008 
L 573.231859 603.728008 
L 578.580325 603.728008 
L 583.769111 603.728008 
L 588.807476 603.728008 
L 593.703896 603.728008 
L 598.46615 603.728008 
L 603.101396 603.728008 
L 607.616232 603.728008 
L 612.016756 603.728008 
L 616.308614 603.728008 
L 620.497044 603.728008 
L 624.586913 603.728008 
L 628.582754 603.728008 
L 632.488793 603.728008 
L 636.308978 603.728008 
L 640.047002 603.728008 
L 643.706325 603.728008 
L 647.290192 603.728008 
L 650.801654 603.728008 
L 654.243576 603.728008 
L 657.618661 603.728008 
L 660.929455 603.728008 
L 664.178361 603.728008 
L 667.367651 603.728008 
L 670.499473 603.728008 
L 673.575862 603.728008 
L 676.598745 603.728008 
L 679.569953 603.728008 
L 682.491222 603.728008 
L 685.364203 603.728008 
L 688.190468 603.728008 
L 690.97151 603.728008 
L 693.708754 603.728008 
L 696.403558 603.728008 
L 699.057219 603.728008 
L 701.670974 603.728008 
L 704.246005 603.728008 
L 706.783443 603.728008 
L 709.28437 603.728008 
L 711.749822 603.728008 
L 714.18079 603.728008 
L 716.578227 603.728008 
L 718.943045 603.728008 
L 721.276119 603.728008 
L 723.578291 603.728008 
L 725.850368 603.728008 
L 728.093127 603.728008 
L 730.307315 603.728008 
L 732.493651 603.728008 
L 734.652827 603.728008 
L 736.785509 603.728008 
L 738.89234 603.728008 
L 740.973939 603.728008 
L 743.030902 603.728008 
L 745.063808 603.728008 
L 747.073211 603.728008 
L 749.059648 603.728008 
L 751.02364 603.728008 
L 752.965687 603.728008 
L 754.886275 603.728008 
L 756.785872 603.728008 
L 758.664933 603.728008 
L 760.523896 603.728008 
L 762.363188 603.728008 
L 764.183219 603.728008 
L 765.98439 603.728008 
L 767.767087 603.728008 
L 769.531685 603.728008 
L 771.278548 603.728008 
L 773.008029 603.728008 
L 774.720471 603.728008 
L 776.416205 603.728008 
L 778.095556 603.728008 
L 779.758836 603.728008 
L 781.40635 603.728008 
L 783.038394 603.728008 
L 784.655256 603.728008 
L 786.257216 603.728008 
L 787.844546 603.728008 
L 789.41751 603.728008 
L 790.976368 603.728008 
L 792.521368 603.728008 
L 794.052756 603.728008 
L 795.570769 603.728008 
L 797.07564 603.728008 
L 798.567592 603.728008 
L 800.046847 603.728008 
L 801.513619 603.728008 
L 802.968116 603.728008 
L 804.410543 603.728008 
L 805.841098 603.728008 
L 807.259974 603.728008 
L 808.667362 603.728008 
L 810.063445 603.728008 
L 811.448404 603.728008 
L 812.822414 603.728008 
" clip-path="url(#p522df00347)" style="fill: none; stroke: #0000ff; stroke-opacity: 0.8; stroke-width: 2.5; stroke-linecap: square"/>
   </g>
   <g id="line2d_103">
    <path d="M 91.324282 602.301189 
L 161.798747 603.428175 
L 211.801176 604.933344 
L 250.586073 603.467964 
L 282.275642 605.754001 
L 309.06879 603.581147 
L 332.278071 604.256191 
L 352.750107 602.474722 
L 371.062968 601.808368 
L 387.628965 605.251504 
L 402.752536 603.164718 
L 416.664872 603.143013 
L 429.545684 601.849893 
L 441.537433 602.454215 
L 452.754965 602.140407 
L 463.292216 603.173826 
L 473.227001 605.443177 
L 482.624502 604.745304 
L 491.539862 603.117664 
L 500.02015 605.515216 
L 508.10586 604.445872 
L 515.832083 604.238085 
L 523.22943 603.872449 
L 530.324759 603.17788 
L 537.141767 603.278335 
L 543.701467 602.861092 
L 550.022579 605.037076 
L 556.121851 604.282347 
L 562.014327 603.073571 
L 567.713573 605.344094 
L 573.231859 602.664471 
L 578.580325 603.571884 
L 583.769111 605.58199 
L 588.807476 602.534186 
L 593.703896 603.395322 
L 598.46615 601.165198 
L 603.101396 602.108706 
L 607.616232 606.024651 
L 612.016756 604.109444 
L 616.308614 603.50974 
L 620.497044 603.338367 
L 624.586913 605.043458 
L 628.582754 603.607897 
L 632.488793 604.122511 
L 636.308978 604.930246 
L 640.047002 604.430341 
L 643.706325 604.400513 
L 647.290192 601.119066 
L 650.801654 602.069472 
L 654.243576 603.316583 
L 657.618661 606.113562 
L 660.929455 601.732862 
L 664.178361 606.596673 
L 667.367651 605.549907 
L 670.499473 605.879683 
L 673.575862 605.056465 
L 676.598745 601.346998 
L 679.569953 602.622442 
L 682.491222 603.36328 
L 685.364203 603.715101 
L 688.190468 605.055297 
L 690.97151 602.56574 
L 693.708754 601.663804 
L 696.403558 602.454167 
L 699.057219 602.848169 
L 701.670974 602.298212 
L 704.246005 603.632046 
L 706.783443 606.542804 
L 709.28437 602.113245 
L 711.749822 605.207892 
L 714.18079 603.687622 
L 716.578227 601.156841 
L 718.943045 603.761447 
L 721.276119 601.409096 
L 723.578291 603.511349 
L 725.850368 604.912882 
L 728.093127 603.837978 
L 730.307315 604.485202 
L 732.493651 602.185045 
L 734.652827 603.983411 
L 736.785509 602.710821 
L 738.89234 603.175011 
L 740.973939 606.333436 
L 743.030902 604.778426 
L 745.063808 603.66142 
L 747.073211 604.231687 
L 749.059648 603.502407 
L 751.02364 602.932554 
L 752.965687 602.195187 
L 754.886275 603.259228 
L 756.785872 603.558139 
L 758.664933 602.879258 
L 760.523896 604.598796 
L 762.363188 603.395827 
L 764.183219 603.132425 
L 765.98439 603.584618 
L 767.767087 603.752321 
L 769.531685 602.758491 
L 771.278548 605.12288 
L 773.008029 604.911783 
L 774.720471 604.022462 
L 776.416205 602.206662 
L 778.095556 605.739536 
L 779.758836 602.29217 
L 781.40635 601.722869 
L 783.038394 603.423117 
L 784.655256 605.213651 
L 786.257216 606.075661 
L 787.844546 600.740264 
L 789.41751 605.44046 
L 790.976368 604.446322 
L 792.521368 606.318391 
L 794.052756 606.6551 
L 795.570769 602.764375 
L 797.07564 604.554661 
L 798.567592 602.521879 
L 800.046847 604.215087 
L 801.513619 602.002599 
L 802.968116 604.189941 
L 804.410543 602.369941 
L 805.841098 605.135808 
L 807.259974 604.841879 
L 808.667362 605.083838 
L 810.063445 604.614832 
L 811.448404 606.062132 
L 812.822414 605.166479 
" clip-path="url(#p522df00347)" style="fill: none; stroke: #ff0000; stroke-opacity: 0.8; stroke-width: 2.5; stroke-linecap: square"/>
   </g>
   <g id="line2d_104">
    <path d="M 91.324282 612.067824 
L 161.798747 611.077763 
L 211.801176 609.705464 
L 250.586073 611.042234 
L 282.275642 608.931951 
L 309.06879 610.940952 
L 332.278071 610.330114 
L 352.750107 611.917392 
L 371.062968 612.491127 
L 387.628965 609.407756 
L 402.752536 611.312011 
L 416.664872 611.331232 
L 429.545684 612.455681 
L 441.537433 611.935207 
L 452.754965 612.206559 
L 463.292216 611.303941 
L 473.227001 609.227081 
L 482.624502 609.880139 
L 491.539862 611.353667 
L 500.02015 609.158915 
L 508.10586 610.156357 
L 515.832083 610.34665 
L 523.22943 610.678788 
L 530.324759 611.30035 
L 537.141767 611.211203 
L 543.701467 611.579839 
L 550.022579 609.608699 
L 556.121851 610.306209 
L 562.014327 611.392651 
L 567.713573 609.320603 
L 573.231859 611.75207 
L 578.580325 610.949253 
L 583.769111 609.095605 
L 588.807476 611.865676 
L 593.703896 611.107069 
L 598.46615 613.035016 
L 603.101396 612.23384 
L 607.616232 608.672785 
L 612.016756 610.463899 
L 616.308614 611.004888 
L 620.497044 611.157809 
L 624.586913 609.602736 
L 628.582754 610.916968 
L 632.488793 610.452009 
L 636.308978 609.708349 
L 640.047002 610.170619 
L 643.706325 610.197993 
L 647.290192 613.073662 
L 650.801654 612.267572 
L 654.243576 611.177194 
L 657.618661 608.5872 
L 660.929455 612.555475 
L 664.178361 608.118243 
L 667.367651 609.126039 
L 670.499473 608.811856 
L 673.575862 609.590581 
L 676.598745 612.882248 
L 679.569953 611.788764 
L 682.491222 611.135624 
L 685.364203 610.820665 
L 688.190468 609.591672 
L 690.97151 611.8382 
L 693.708754 612.614212 
L 696.403558 611.935248 
L 699.057219 611.591188 
L 701.670974 612.070399 
L 704.246005 610.8953 
L 706.783443 608.170864 
L 709.28437 612.229935 
L 711.749822 609.448726 
L 714.18079 610.845378 
L 716.578227 613.042021 
L 718.943045 610.778942 
L 721.276119 612.829893 
L 723.578291 611.00345 
L 725.850368 609.724516 
L 728.093127 610.709924 
L 730.307315 610.120211 
L 732.493651 612.168104 
L 734.652827 610.578356 
L 736.785509 611.711555 
L 738.89234 611.302892 
L 740.973939 608.374591 
L 743.030902 609.84944 
L 745.063808 610.868924 
L 747.073211 610.352493 
L 749.059648 611.011447 
L 751.02364 611.517007 
L 752.965687 612.15936 
L 754.886275 611.228178 
L 756.785872 610.961567 
L 758.664933 611.563878 
L 760.523896 610.015584 
L 762.363188 611.106618 
L 764.183219 611.340605 
L 765.98439 610.937841 
L 767.767087 610.787162 
L 769.531685 611.669831 
L 771.278548 609.52844 
L 773.008029 609.72554 
L 774.720471 610.542936 
L 776.416205 612.149464 
L 778.095556 608.945744 
L 779.758836 612.075622 
L 781.40635 612.563982 
L 783.038394 611.082277 
L 784.655256 609.443318 
L 786.257216 608.62371 
L 787.844546 613.389157 
L 789.41751 609.229648 
L 790.976368 610.155943 
L 792.521368 608.389183 
L 794.052756 608.061075 
L 795.570769 611.664677 
L 797.07564 610.056276 
L 798.567592 611.876387 
L 800.046847 610.367644 
L 801.513619 612.324981 
L 802.968116 610.390581 
L 804.410543 612.008311 
L 805.841098 609.51633 
L 807.259974 609.790546 
L 808.667362 609.564984 
L 810.063445 610.000787 
L 811.448404 608.636734 
L 812.822414 609.487582 
" clip-path="url(#p522df00347)" style="fill: none; stroke-dasharray: 7.4,3.2; stroke-dashoffset: 0; stroke: #00bfbf; stroke-opacity: 0.7; stroke-width: 2"/>
   </g>
   <g id="line2d_105">
    <path d="M 55.249375 610.809051 
L 848.897321 610.809051 
" clip-path="url(#p522df00347)" style="fill: none; stroke-dasharray: 2,3.3; stroke-dashoffset: 0; stroke: #000000; stroke-opacity: 0.7; stroke-width: 2"/>
   </g>
   <g id="patch_9">
    <path d="M 55.249375 668.1655 
L 55.249375 355.8915 
" style="fill: none; stroke: #000000; stroke-width: 0.8; stroke-linejoin: miter; stroke-linecap: square"/>
   </g>
   <g id="patch_10">
    <path d="M 848.897321 668.1655 
L 848.897321 355.8915 
" style="fill: none; stroke: #000000; stroke-width: 0.8; stroke-linejoin: miter; stroke-linecap: square"/>
   </g>
   <g id="patch_11">
    <path d="M 55.249375 668.1655 
L 848.897321 668.1655 
" style="fill: none; stroke: #000000; stroke-width: 0.8; stroke-linejoin: miter; stroke-linecap: square"/>
   </g>
   <g id="patch_12">
    <path d="M 55.249375 355.8915 
L 848.897321 355.8915 
" style="fill: none; stroke: #000000; stroke-width: 0.8; stroke-linejoin: miter; stroke-linecap: square"/>
   </g>
   <g id="legend_2">
    <g id="patch_13">
     <path d="M 530.873884 393.24775 
L 841.897321 393.24775 
Q 843.897321 393.24775 843.897321 391.24775 
L 843.897321 362.8915 
Q 843.897321 360.8915 841.897321 360.8915 
L 530.873884 360.8915 
Q 528.873884 360.8915 528.873884 362.8915 
L 528.873884 391.24775 
Q 528.873884 393.24775 530.873884 393.24775 
z
" style="fill: #ffffff; opacity: 0.8; stroke: #cccccc; stroke-linejoin: miter"/>
    </g>
    <g id="line2d_106">
     <path d="M 532.873884 368.989937 
L 542.873884 368.989937 
L 552.873884 368.989937 
" style="fill: none; stroke: #0000ff; stroke-opacity: 0.8; stroke-width: 2.5; stroke-linecap: square"/>
    </g>
    <g id="text_19">
     <!-- JaxPM/Theory -->
     <g transform="translate(560.873884 372.489937) scale(0.1 -0.1)">
      <defs>
       <path id="DejaVuSans-2f" d="M 1625 4666 
L 2156 4666 
L 531 -594 
L 0 -594 
L 1625 4666 
z
" transform="scale(0.015625)"/>
      </defs>
      <use xlink:href="#DejaVuSans-4a"/>
      <use xlink:href="#DejaVuSans-61" transform="translate(29.492188 0)"/>
      <use xlink:href="#DejaVuSans-78" transform="translate(90.771484 0)"/>
      <use xlink:href="#DejaVuSans-50" transform="translate(149.951172 0)"/>
      <use xlink:href="#DejaVuSans-4d" transform="translate(210.253906 0)"/>
      <use xlink:href="#DejaVuSans-2f" transform="translate(296.533203 0)"/>
      <use xlink:href="#DejaVuSans-54" transform="translate(330.224609 0)"/>
      <use xlink:href="#DejaVuSans-68" transform="translate(391.308594 0)"/>
      <use xlink:href="#DejaVuSans-65" transform="translate(454.6875 0)"/>
      <use xlink:href="#DejaVuSans-6f" transform="translate(516.210938 0)"/>
      <use xlink:href="#DejaVuSans-72" transform="translate(577.392578 0)"/>
      <use xlink:href="#DejaVuSans-79" transform="translate(618.505859 0)"/>
     </g>
    </g>
    <g id="line2d_107">
     <path d="M 532.873884 383.668062 
L 542.873884 383.668062 
L 552.873884 383.668062 
" style="fill: none; stroke: #ff0000; stroke-opacity: 0.8; stroke-width: 2.5; stroke-linecap: square"/>
    </g>
    <g id="text_20">
     <!-- Glass Triangular/Theory -->
     <g transform="translate(560.873884 387.168062) scale(0.1 -0.1)">
      <use xlink:href="#DejaVuSans-47"/>
      <use xlink:href="#DejaVuSans-6c" transform="translate(77.490234 0)"/>
      <use xlink:href="#DejaVuSans-61" transform="translate(105.273438 0)"/>
      <use xlink:href="#DejaVuSans-73" transform="translate(166.552734 0)"/>
      <use xlink:href="#DejaVuSans-73" transform="translate(218.652344 0)"/>
      <use xlink:href="#DejaVuSans-20" transform="translate(270.751953 0)"/>
      <use xlink:href="#DejaVuSans-54" transform="translate(302.539062 0)"/>
      <use xlink:href="#DejaVuSans-72" transform="translate(348.873047 0)"/>
      <use xlink:href="#DejaVuSans-69" transform="translate(389.986328 0)"/>
      <use xlink:href="#DejaVuSans-61" transform="translate(417.769531 0)"/>
      <use xlink:href="#DejaVuSans-6e" transform="translate(479.048828 0)"/>
      <use xlink:href="#DejaVuSans-67" transform="translate(542.427734 0)"/>
      <use xlink:href="#DejaVuSans-75" transform="translate(605.904297 0)"/>
      <use xlink:href="#DejaVuSans-6c" transform="translate(669.283203 0)"/>
      <use xlink:href="#DejaVuSans-61" transform="translate(697.066406 0)"/>
      <use xlink:href="#DejaVuSans-72" transform="translate(758.345703 0)"/>
      <use xlink:href="#DejaVuSans-2f" transform="translate(799.458984 0)"/>
      <use xlink:href="#DejaVuSans-54" transform="translate(833.150391 0)"/>
      <use xlink:href="#DejaVuSans-68" transform="translate(894.234375 0)"/>
      <use xlink:href="#DejaVuSans-65" transform="translate(957.613281 0)"/>
      <use xlink:href="#DejaVuSans-6f" transform="translate(1019.136719 0)"/>
      <use xlink:href="#DejaVuSans-72" transform="translate(1080.318359 0)"/>
      <use xlink:href="#DejaVuSans-79" transform="translate(1121.431641 0)"/>
     </g>
    </g>
    <g id="line2d_108">
     <path d="M 698.931696 368.989937 
L 708.931696 368.989937 
L 718.931696 368.989937 
" style="fill: none; stroke-dasharray: 7.4,3.2; stroke-dashoffset: 0; stroke: #00bfbf; stroke-opacity: 0.7; stroke-width: 2"/>
    </g>
    <g id="text_21">
     <!-- JaxPM/Glass Triangular -->
     <g transform="translate(726.931696 372.489937) scale(0.1 -0.1)">
      <use xlink:href="#DejaVuSans-4a"/>
      <use xlink:href="#DejaVuSans-61" transform="translate(29.492188 0)"/>
      <use xlink:href="#DejaVuSans-78" transform="translate(90.771484 0)"/>
      <use xlink:href="#DejaVuSans-50" transform="translate(149.951172 0)"/>
      <use xlink:href="#DejaVuSans-4d" transform="translate(210.253906 0)"/>
      <use xlink:href="#DejaVuSans-2f" transform="translate(296.533203 0)"/>
      <use xlink:href="#DejaVuSans-47" transform="translate(330.224609 0)"/>
      <use xlink:href="#DejaVuSans-6c" transform="translate(407.714844 0)"/>
      <use xlink:href="#DejaVuSans-61" transform="translate(435.498047 0)"/>
      <use xlink:href="#DejaVuSans-73" transform="translate(496.777344 0)"/>
      <use xlink:href="#DejaVuSans-73" transform="translate(548.876953 0)"/>
      <use xlink:href="#DejaVuSans-20" transform="translate(600.976562 0)"/>
      <use xlink:href="#DejaVuSans-54" transform="translate(632.763672 0)"/>
      <use xlink:href="#DejaVuSans-72" transform="translate(679.097656 0)"/>
      <use xlink:href="#DejaVuSans-69" transform="translate(720.210938 0)"/>
      <use xlink:href="#DejaVuSans-61" transform="translate(747.994141 0)"/>
      <use xlink:href="#DejaVuSans-6e" transform="translate(809.273438 0)"/>
      <use xlink:href="#DejaVuSans-67" transform="translate(872.652344 0)"/>
      <use xlink:href="#DejaVuSans-75" transform="translate(936.128906 0)"/>
      <use xlink:href="#DejaVuSans-6c" transform="translate(999.507812 0)"/>
      <use xlink:href="#DejaVuSans-61" transform="translate(1027.291016 0)"/>
      <use xlink:href="#DejaVuSans-72" transform="translate(1088.570312 0)"/>
     </g>
    </g>
    <g id="patch_14">
     <path d="M 698.931696 387.168062 
L 718.931696 387.168062 
L 718.931696 380.168062 
L 698.931696 380.168062 
z
" style="fill: #808080; fill-opacity: 0.1; stroke: #808080; stroke-opacity: 0.1; stroke-linejoin: miter"/>
    </g>
    <g id="text_22">
     <!-- 50% zone -->
     <g transform="translate(726.931696 387.168062) scale(0.1 -0.1)">
      <defs>
       <path id="DejaVuSans-b1" d="M 2944 4013 
L 2944 2803 
L 4684 2803 
L 4684 2272 
L 2944 2272 
L 2944 1063 
L 2419 1063 
L 2419 2272 
L 678 2272 
L 678 2803 
L 2419 2803 
L 2419 4013 
L 2944 4013 
z
M 678 531 
L 4684 531 
L 4684 0 
L 678 0 
L 678 531 
z
" transform="scale(0.015625)"/>
       <path id="DejaVuSans-25" d="M 4653 2053 
Q 4381 2053 4226 1822 
Q 4072 1591 4072 1178 
Q 4072 772 4226 539 
Q 4381 306 4653 306 
Q 4919 306 5073 539 
Q 5228 772 5228 1178 
Q 5228 1588 5073 1820 
Q 4919 2053 4653 2053 
z
M 4653 2450 
Q 5147 2450 5437 2106 
Q 5728 1763 5728 1178 
Q 5728 594 5436 251 
Q 5144 -91 4653 -91 
Q 4153 -91 3862 251 
Q 3572 594 3572 1178 
Q 3572 1766 3864 2108 
Q 4156 2450 4653 2450 
z
M 1428 4353 
Q 1159 4353 1004 4120 
Q 850 3888 850 3481 
Q 850 3069 1003 2837 
Q 1156 2606 1428 2606 
Q 1700 2606 1854 2837 
Q 2009 3069 2009 3481 
Q 2009 3884 1853 4118 
Q 1697 4353 1428 4353 
z
M 4250 4750 
L 4750 4750 
L 1831 -91 
L 1331 -91 
L 4250 4750 
z
M 1428 4750 
Q 1922 4750 2215 4408 
Q 2509 4066 2509 3481 
Q 2509 2891 2217 2550 
Q 1925 2209 1428 2209 
Q 931 2209 642 2551 
Q 353 2894 353 3481 
Q 353 4063 643 4406 
Q 934 4750 1428 4750 
z
" transform="scale(0.015625)"/>
      </defs>
      <use xlink:href="#DejaVuSans-b1"/>
      <use xlink:href="#DejaVuSans-35" transform="translate(83.789062 0)"/>
      <use xlink:href="#DejaVuSans-30" transform="translate(147.412109 0)"/>
      <use xlink:href="#DejaVuSans-25" transform="translate(211.035156 0)"/>
      <use xlink:href="#DejaVuSans-20" transform="translate(306.054688 0)"/>
      <use xlink:href="#DejaVuSans-7a" transform="translate(337.841797 0)"/>
      <use xlink:href="#DejaVuSans-6f" transform="translate(390.332031 0)"/>
      <use xlink:href="#DejaVuSans-6e" transform="translate(451.513672 0)"/>
      <use xlink:href="#DejaVuSans-65" transform="translate(514.892578 0)"/>
     </g>
    </g>
   </g>
  </g>
 </g>
 <defs>
  <clipPath id="p8a3f21a928">
   <rect x="55.249375" y="25.3575" width="793.647946" height="312.274"/>
  </clipPath>
  <clipPath id="p522df00347">
   <rect x="55.249375" y="355.8915" width="793.647946" height="312.274"/>
  </clipPath>
 </defs>
</svg>
